<svg width="121" height="121" viewBox="0 0 121 121" fill="none" xmlns="http://www.w3.org/2000/svg">

<!-- Skills icon -->

<g id="vscodeSvg">
  <path d="M101.535 17.605L81.354 7.88899C80.2143 7.33948 78.9319 7.15814 77.6845 7.37011C76.4372 7.58208 75.2867 8.17686 74.3925 9.07199L8.32998 69.3C7.52845 70.0273 7.04865 71.0432 6.99614 72.1243C6.94363 73.2053 7.32271 74.2629 8.04998 75.0645C8.13748 75.159 8.22498 75.25 8.31948 75.334L13.713 80.234C14.4178 80.8754 15.3249 81.2497 16.277 81.2919C17.229 81.3341 18.1657 81.0416 18.9245 80.465L98.497 20.125C99.098 19.6689 99.8144 19.3897 100.566 19.3186C101.317 19.2476 102.073 19.3877 102.749 19.7231C103.424 20.0585 103.993 20.5758 104.391 21.217C104.789 21.8581 105 22.5975 105 23.352V23.1175C105 21.9656 104.675 20.8372 104.062 19.862C103.449 18.8868 102.573 18.1045 101.535 17.605Z" fill="#0065A9"/>
  <path d="M101.535 94.395L81.354 104.115C80.214 104.662 78.9319 104.843 77.6849 104.631C76.4379 104.419 75.2875 103.825 74.3925 102.932L8.32998 42.7C7.52845 41.9727 7.04865 40.9568 6.99614 39.8758C6.94363 38.7947 7.32271 37.7371 8.04998 36.9355C8.13748 36.841 8.22498 36.75 8.31948 36.666L13.713 31.766C14.4185 31.1219 15.3277 30.7459 16.2821 30.7037C17.2365 30.6615 18.1754 30.9557 18.935 31.535L98.497 91.875C99.098 92.3311 99.8144 92.6104 100.566 92.6814C101.317 92.7524 102.073 92.6123 102.749 92.2769C103.424 91.9415 103.993 91.4242 104.391 90.783C104.789 90.1419 105 89.4025 105 88.648V88.9C104.996 90.0488 104.669 91.1733 104.057 92.1451C103.444 93.1168 102.57 93.8965 101.535 94.395Z" fill="#007ACC"/>
  <path d="M81.354 104.114C80.214 104.662 78.9319 104.843 77.6849 104.631C76.4379 104.419 75.2875 103.825 74.3925 102.931C74.8951 103.428 75.5329 103.764 76.2261 103.899C76.9192 104.034 77.6368 103.962 78.289 103.691C78.9411 103.42 79.4988 102.963 79.8921 102.376C80.2854 101.79 80.4969 101.1 80.5 100.394V11.606C80.5006 10.8965 80.2906 10.2028 79.8966 9.61274C79.5026 9.02271 78.9423 8.56288 78.2868 8.29152C77.6312 8.02016 76.9099 7.94946 76.2141 8.0884C75.5184 8.22734 74.8795 8.56965 74.3785 9.07197C75.2728 8.17717 76.4231 7.58235 77.6702 7.3698C78.9174 7.15724 80.1997 7.33744 81.34 7.88547L101.517 17.5875C102.559 18.0845 103.438 18.8657 104.054 19.8411C104.67 20.8165 104.998 21.9463 105 23.1V88.9C105 90.0528 104.675 91.1822 104.061 92.1581C103.447 93.134 102.571 93.9167 101.531 94.416L81.354 104.114Z" fill="#1F9CF0"/>
</g>

<g id="JavaScriptSvg">
  <path d="M8.11639 7.5H113.116V112.5H8.11639V7.5Z" fill="#F5DE19"/>
  <path d="M78.6501 89.5312C79.5448 91.3485 80.9347 92.8759 82.6598 93.9375C84.3848 94.9991 86.3747 95.5515 88.4001 95.5313C92.4876 95.5313 95.1014 93.4875 95.1014 90.6562C95.1014 87.2812 92.4164 86.0738 87.9164 84.105L85.4489 83.0475C78.3239 80.0138 73.5989 76.215 73.5989 68.1825C73.5989 60.7838 79.2239 55.1475 88.0476 55.1475C90.904 54.9412 93.7579 55.5805 96.2534 56.9856C98.7488 58.3907 100.775 60.4994 102.08 63.0488L94.3664 67.98C93.864 66.716 92.9892 65.6345 91.858 64.879C90.7268 64.1236 89.3927 63.7298 88.0326 63.75C87.4392 63.6906 86.84 63.7555 86.273 63.9404C85.7061 64.1254 85.1839 64.4265 84.7397 64.8244C84.2956 65.2224 83.9392 65.7085 83.6932 66.2518C83.4473 66.7951 83.3173 67.3837 83.3114 67.98C83.3114 70.9388 85.1451 72.1388 89.3789 73.98L91.8464 75.0375C100.231 78.6338 104.971 82.2975 104.971 90.5363C104.971 99.42 97.9926 104.287 88.6214 104.287C84.97 104.52 81.3293 103.691 78.1387 101.901C74.948 100.11 72.3438 97.4342 70.6401 94.1963L78.6501 89.5312ZM43.7939 90.3863C45.3426 93.135 46.7526 95.46 50.1426 95.46C53.3826 95.46 55.4301 94.1925 55.4301 89.2612V55.71H65.2964V89.3925C65.2964 99.6075 59.2964 104.257 50.5626 104.257C47.4755 104.426 44.4095 103.657 41.7677 102.051C39.126 100.444 37.0321 98.0761 35.7614 95.2575L43.7939 90.3863Z" fill="black"/>
</g>

  <g id="cssSvg">
    <path d="M22.3653 101.154L13.9428 7.4375H106.523L98.089 101.139L60.1765 111.562L22.3653 101.154Z" fill="#1572B6"/>
    <path d="M60.2328 103.597L90.8703 95.174L98.0778 15.1019H60.2328V103.597Z" fill="#33A9DC"/>
    <path d="M60.2328 49.054H75.5703L76.6278 37.2842H60.2328V25.7896H89.2953L89.0178 28.8724L86.1715 60.5487H60.2328V49.054Z" fill="white"/>
    <path d="M60.304 78.9045L60.2515 78.9193L47.344 75.4609L46.519 66.2942H34.8828L36.5065 84.3413L60.2478 90.8788L60.304 90.864V78.9045Z" fill="#EBEBEB"/>
    <path d="M74.584 60.0615L73.189 75.4534L60.2628 78.9119V90.8714L84.0228 84.3412L84.199 82.4001L86.2128 60.0615H74.584Z" fill="white"/>
    <path d="M60.274 25.7896V37.2842H32.2765L32.044 34.6997L31.5153 28.8724L31.2378 25.7896H60.274ZM60.2328 49.054V60.5487H47.4865L47.254 57.9642L46.729 52.1369L46.4515 49.054H60.2328Z" fill="#EBEBEB"/>
  </g>

  <g id="htmlSvg">
    <path d="M22.9817 102.004L14.5554 7.5H107.143L98.7054 101.989L60.7929 112.5L22.9817 102.004Z" fill="#E44F26"/>
    <path d="M60.8492 104.468L91.4867 95.9738L98.6942 15.2288H60.8492V104.468Z" fill="#F1662A"/>
    <path d="M60.8492 50.2762H45.5117L44.4542 38.4075H60.8492V26.8162H31.7867L32.0642 29.9287L34.9104 61.8675H60.8492V50.2762ZM60.8492 80.3775L60.7967 80.3925L47.8892 76.9087L47.0642 67.665H35.4279L37.0517 85.86L60.7967 92.4525L60.8492 92.4375V80.3775Z" fill="#EBEBEB"/>
    <path d="M60.8079 50.2762V61.8675H75.0804L73.7379 76.9012L60.8079 80.3887V92.4487L84.5717 85.86L84.7442 83.9025L87.4667 53.3887L87.7517 50.2762H60.8079ZM60.8079 26.8162V38.4075H88.8054L89.0379 35.805L89.5667 29.9287L89.8442 26.8162H60.8079Z" fill="white"/>
  </g>

  <g id="reactSvg">
    <g clip-path="url(#clip0_13_2986)">
    <path d="M93.1056 32.7027C91.9031 32.2887 90.6904 31.9051 89.4687 31.5523C89.6739 30.7106 89.8628 29.8792 90.0305 29.0623C92.7838 15.6483 90.9839 4.84178 84.8361 1.28375C78.9416 -2.12722 69.3016 1.42949 59.5659 9.93342C58.6064 10.773 57.6682 11.6368 56.7521 12.524C56.1389 11.934 55.5149 11.3556 54.8803 10.7888C44.6767 1.69616 34.4493 -2.13608 28.3081 1.43215C22.4189 4.85374 20.675 15.0127 23.1538 27.7254C23.4004 28.9844 23.6788 30.237 23.9888 31.4819C22.5411 31.8947 21.1442 32.3342 19.8073 32.8019C7.84441 36.9881 0.204742 43.5483 0.204742 50.3529C0.204742 57.3808 8.40627 64.43 20.8661 68.7043C21.8763 69.0495 22.8948 69.3692 23.9209 69.6634C23.5876 71.0042 23.2918 72.354 23.0337 73.7114C20.6706 86.2035 22.516 96.1223 28.3893 99.5222C34.4555 103.033 44.637 99.4247 54.5506 90.7268C55.3545 90.0196 56.1407 89.2925 56.9084 88.546C57.9004 89.5066 58.9189 90.4393 59.9627 91.343C69.566 99.6365 79.0501 102.985 84.9177 99.5762C90.9782 96.055 92.948 85.3995 90.3907 72.4356C90.1892 71.42 89.9633 70.4094 89.7132 69.4047C90.4282 69.1921 91.13 68.9732 91.8141 68.7455C104.767 64.4384 113.195 57.4747 113.195 50.3529C113.195 43.5234 105.309 36.919 93.1056 32.7027ZM90.2962 64.1474C89.6783 64.3525 89.0445 64.5505 88.3983 64.7432C86.9683 60.1995 85.0386 55.3684 82.6769 50.3764C84.9305 45.5036 86.786 40.734 88.1759 36.22C89.3318 36.5558 90.4534 36.9097 91.5347 37.2832C101.991 40.8961 108.369 46.2372 108.369 50.3529C108.369 54.7367 101.481 60.4277 90.2962 64.1474ZM85.6557 73.3765C86.7865 79.1087 86.9476 84.2916 86.1986 88.3435C85.5259 91.9844 84.1727 94.4115 82.499 95.3839C78.9385 97.4526 71.3235 94.7637 63.111 87.6706C62.1401 86.8305 61.1927 85.9634 60.2699 85.0703C63.4539 81.5756 66.6357 77.5131 69.7412 73.0008C75.2036 72.5144 80.3641 71.7188 85.0439 70.6331C85.2694 71.5426 85.4734 72.4573 85.6557 73.3765ZM38.7257 95.0264C35.2468 96.2592 32.4759 96.2946 30.8009 95.3254C27.2369 93.2624 25.7552 85.298 27.7762 74.6151C28.0165 73.3527 28.2915 72.0972 28.6011 70.8502C33.2293 71.8779 38.3523 72.6168 43.8275 73.0624C46.9542 77.4776 50.2278 81.5358 53.5271 85.0894C52.8259 85.7703 52.1082 86.4338 51.3745 87.0793C46.9904 90.9252 42.5974 93.654 38.7257 95.0264ZM22.4277 64.1204C16.9181 62.2302 12.368 59.7738 9.24929 57.0933C6.44659 54.6848 5.032 52.2932 5.032 50.3529C5.032 46.2234 11.1657 40.9564 21.3962 37.3766C22.6378 36.9425 23.9372 36.5327 25.2856 36.1482C26.6997 40.7641 28.5544 45.5904 30.7925 50.4707C28.5252 55.4233 26.6441 60.3267 25.2163 64.997C24.2797 64.7278 23.3499 64.4355 22.4277 64.1204ZM27.891 26.7947C25.7676 15.9031 27.1777 7.68706 30.7268 5.62497C34.5067 3.42867 42.8653 6.56011 51.6755 14.4115C52.25 14.9247 52.8152 15.4482 53.3708 15.9819C50.0879 19.52 46.8443 23.548 43.7454 27.9371C38.4313 28.4315 33.3445 29.2253 28.6678 30.2889C28.3797 29.131 28.1206 27.9661 27.891 26.7951V26.7947ZM76.6301 38.8739C75.5255 36.9589 74.3798 35.0679 73.194 33.2024C76.7991 33.66 80.2533 34.2673 83.4969 35.0098C82.5233 38.1425 81.3095 41.4175 79.8808 44.7753C78.8365 42.7867 77.7527 40.8191 76.6301 38.8739ZM56.7544 19.4443C58.9806 21.8652 61.2104 24.5678 63.4036 27.5003C58.9546 27.2894 54.4982 27.2886 50.0491 27.4977C52.2444 24.5922 54.4932 21.8931 56.7544 19.4443ZM36.751 38.9071C35.6425 40.8367 34.5789 42.792 33.5613 44.7713C32.1559 41.4255 30.9532 38.1355 29.9712 34.9584C33.1949 34.2346 36.6327 33.6427 40.2149 33.1935C39.0159 35.0704 37.8609 36.9754 36.751 38.9067V38.9071ZM40.3177 67.8569C36.6169 67.4423 33.1274 66.881 29.9045 66.1767C30.902 62.9429 32.1312 59.5829 33.567 56.1653C34.5887 58.1461 35.6567 60.1026 36.77 62.033C37.9149 64.0176 39.1004 65.9614 40.3177 67.8569ZM56.8876 81.6027C54.5996 79.1255 52.3177 76.3848 50.0892 73.4372C52.2528 73.5222 54.4583 73.5656 56.7001 73.5656C59.0031 73.5656 61.2797 73.5138 63.5205 73.4137C61.3203 76.4145 59.0989 79.1592 56.8876 81.6027ZM79.9263 55.9907C81.4366 59.446 82.7095 62.7883 83.7203 65.9667C80.4444 66.7171 76.9073 67.3214 73.1804 67.7701C74.3746 65.8699 75.5311 63.9461 76.6491 61.9998C77.7858 60.0214 78.8784 58.0179 79.9263 55.9907ZM72.468 59.5794C70.7564 62.5634 68.9487 65.4909 67.0475 68.357C63.6038 68.6018 60.1524 68.7234 56.7001 68.7216C53.1837 68.7216 49.7635 68.6118 46.47 68.3974C44.5192 65.5378 42.677 62.6053 40.9471 59.6059H40.9476C39.2259 56.6225 37.6177 53.5745 36.1265 50.4685C37.6139 47.3618 39.2172 44.3124 40.933 41.3267L40.9326 41.3271C42.6477 38.3407 44.4753 35.4206 46.4113 32.5734C49.7714 32.3182 53.2172 32.1853 56.6996 32.1853H56.7001C60.1984 32.1853 63.6485 32.3195 67.0078 32.5765C68.9243 35.4195 70.7402 38.3295 72.4521 41.301C74.1736 44.2801 75.7981 47.3147 77.3231 50.3999C75.8138 53.5166 74.1944 56.5783 72.468 59.5794ZM82.4253 5.48056C86.2087 7.67067 87.6802 16.5024 85.303 28.0842C85.1512 28.8231 84.9808 29.5757 84.7954 30.339C80.1072 29.2528 75.0169 28.4452 69.6874 27.9433C66.5828 23.506 63.3656 19.4717 60.1361 15.9792C60.9825 15.1604 61.849 14.3628 62.7349 13.5871C71.0768 6.30141 78.8732 3.42468 82.4253 5.48056ZM56.7001 40.2263C62.2724 40.2263 66.7898 44.7603 66.7898 50.3529C66.7898 55.9456 62.2724 60.4795 56.7001 60.4795C51.1278 60.4795 46.6104 55.9456 46.6104 50.3529C46.6104 44.7603 51.1278 40.2263 56.7001 40.2263Z" fill="#00D8FF"/>
    </g>
  </g>

  <g id="typescriptSvg">
    <path d="M0 60V120H60H120V60V0H60H0V60Z" fill="#007ACC"/>
    <path d="M26.5374 60.3979L26.4993 65.3122H34.3088H42.1184L42.1184 87.5026V109.693H47.6422H53.166V87.5026L53.166 65.3122H60.9755H68.785V60.4931C68.785 57.8264 68.7279 55.5979 68.6517 55.5407C68.5946 55.4645 59.0898 55.4264 47.566 55.4455L26.5946 55.5026L26.5374 60.3979Z" fill="white"/>
    <path d="M96.8264 55.3636C99.874 56.1255 102.198 57.4779 104.331 59.6874C105.436 60.8684 107.074 63.0208 107.207 63.535C107.245 63.6874 102.026 67.1922 98.8644 69.1541C98.7502 69.2303 98.293 68.7351 97.7787 67.9731C96.2359 65.7255 94.6168 64.7541 92.1406 64.5827C88.5025 64.335 86.1597 66.2398 86.1787 69.4208C86.1787 70.3541 86.3121 70.9065 86.693 71.6684C87.493 73.3255 88.9787 74.316 93.6454 76.3351C102.236 80.0303 105.912 82.4684 108.198 85.935C110.75 89.8017 111.322 95.9731 109.588 100.564C107.683 105.554 102.96 108.945 96.3121 110.068C94.2549 110.43 89.3787 110.373 87.1692 109.973C82.3502 109.116 77.7787 106.735 74.9597 103.611C73.8549 102.392 71.7025 99.2112 71.8359 98.9827C71.893 98.9065 72.3883 98.6017 72.9406 98.2779C73.474 97.9731 75.493 96.8112 77.3978 95.7065L80.8454 93.7065L81.5692 94.7731C82.5787 96.316 84.7883 98.4303 86.1216 99.135C89.9502 101.154 95.2073 100.868 97.7978 98.5446C98.9025 97.535 99.3597 96.4874 99.3597 94.9446C99.3597 93.5541 99.1883 92.9446 98.4644 91.897C97.5311 90.5636 95.6263 89.4398 90.2168 87.097C84.0263 84.4303 81.3597 82.7731 78.9216 80.1446C77.5121 78.6208 76.1787 76.1827 75.6264 74.1446C75.1692 72.4493 75.0549 68.2017 75.4168 66.4874C76.693 60.5065 81.2073 56.335 87.7216 55.097C89.8359 54.697 94.7502 54.8493 96.8264 55.3636Z" fill="white"/>
  </g>

  <g id="styledSvg">
    <path d="M68.7672 118.279C68.9472 117.872 69.4014 117.589 69.7314 117.246C74.7665 111.967 79.8444 106.735 84.811 101.391C86.3651 99.9558 87.5661 98.1804 88.3199 96.2036C89.0737 94.2269 89.36 92.1026 89.1562 89.9968C89.0003 89.0951 88.7957 88.2025 88.5434 87.3229C87.1893 88.6084 85.9294 89.7783 84.661 90.9567C82.6898 92.7908 80.7272 94.6334 78.7389 96.4461C77.5664 97.6415 76.0589 98.4531 74.4155 98.7737C72.772 99.0943 71.07 98.9087 69.5342 98.2416C67.9796 97.6705 66.6269 96.6553 65.6442 95.3221C64.6614 93.9889 64.0919 92.3965 64.0063 90.7425C63.9603 90.5297 63.8987 90.3206 63.8221 90.1168C62.3094 91.4024 60.861 92.5851 59.4254 93.8021L29.5875 119.085C29.3818 119.261 29.159 119.479 28.9662 119.65H68.7458L68.6858 119.612C68.4715 119.462 68.5829 118.673 68.7672 118.279Z" fill="#FFCEBF"/>
    <path d="M27.1436 118.279C27.4974 117.818 27.9245 117.418 28.4077 117.096L69.7 82.0642C72.5168 79.6731 75.3207 77.2691 78.1118 74.8522C78.4567 74.6118 78.727 74.2791 78.8918 73.8924C79.5594 70.9831 79.654 67.9717 79.1703 65.0263C78.7418 65.3262 78.5104 65.4548 78.3132 65.6648C74.9322 68.6901 71.5683 71.7412 68.1702 74.7494C67.0445 75.8824 65.5885 76.6292 64.0116 76.8825C62.4346 77.1359 60.818 76.8826 59.3941 76.1592C57.9414 75.4734 56.7256 74.3709 55.9014 72.992C55.0773 71.6131 54.682 70.0201 54.766 68.4159V67.0275C54.1447 67.4817 53.6905 67.7859 53.2662 68.1287C36.7396 81.3615 20.2159 94.5842 3.69496 107.797C2.94933 108.393 2.05801 109.721 1.08098 108.431C0.103957 107.141 1.59092 106.61 2.34083 106.01C19.953 91.8774 37.5738 77.7576 55.2031 63.6507C58.0742 61.3496 58.2628 60.3854 56.3944 56.7301L55.2803 57.7757C52.2249 60.6168 49.1353 63.4193 46.1271 66.3075C44.8931 67.4978 43.3476 68.3148 41.6691 68.6641C39.9906 69.0135 38.2476 68.8809 36.6412 68.2818C35.0348 67.6827 33.6306 66.6415 32.5908 65.2784C31.5509 63.9153 30.9178 62.2858 30.7646 60.5782C30.1947 61.0067 29.7019 61.3196 29.2348 61.6838L3.09503 81.9443C2.64419 82.3864 2.13005 82.7591 1.5695 83.0498C1.14643 83.1777 0.692134 83.155 0.283936 82.9856V119.671H27.0922C26.9925 119.451 26.9453 119.21 26.9542 118.969C26.9631 118.727 27.028 118.491 27.1436 118.279Z" fill="#FFCEBF"/>
    <path d="M99.5654 1.82096C98.8369 4.20782 98.1298 6.59897 97.4913 9.01154C96.9016 10.7164 96.9702 12.5802 97.6837 14.2371C98.3972 15.8941 99.7041 17.2246 101.348 17.9676C106.376 20.6107 112.043 21.798 117.709 21.3958V2.22806C117.646 1.80781 117.669 1.37914 117.777 0.968207C117.897 0.73576 118.049 0.520916 118.227 0.329712H99.5482C99.8353 0.663958 99.7368 1.25103 99.5654 1.82096Z" fill="#FF6196"/>
    <path d="M62.0511 42.9976C61.9623 45.137 61.2139 47.1966 59.9085 48.894C55.242 54.9179 49.8829 60.3719 43.9418 65.1435C42.9837 66.0304 41.7694 66.591 40.473 66.745C39.1766 66.8989 37.8647 66.6383 36.7255 66.0005C35.5917 65.5161 34.6357 64.6925 33.9889 63.6428C33.342 62.5932 33.0361 61.369 33.1131 60.1384C33.2503 58.627 33.8779 57.202 34.9 56.0803C41.5435 49.7455 48.7415 44.019 56.4075 38.9695C56.9096 38.5758 57.5227 38.3499 58.1602 38.3237C58.7977 38.2976 59.4273 38.4725 59.9599 38.8238C60.66 39.2585 61.2259 39.8786 61.5951 40.6153C61.9642 41.352 62.122 42.1766 62.0511 42.9976Z" fill="#FF87AF"/>
    <path d="M56.9127 68.97C56.8132 68.0228 56.9348 67.0654 57.2679 66.1731C57.6011 65.2809 58.1366 64.478 58.8325 63.8277C65.3374 57.8281 72.3164 52.3638 79.7014 47.4883C79.9243 47.3468 80.13 47.2054 80.3742 47.0597C81.0193 46.594 81.8009 46.356 82.596 46.3832C83.3912 46.4103 84.1547 46.7011 84.7665 47.2097C85.3585 47.7112 85.7774 48.3865 85.9635 49.1396C86.1497 49.8928 86.0937 50.6854 85.8036 51.4049C84.8693 54.5168 83.1449 57.3337 80.7984 59.5811C76.033 64.2758 71.1755 68.8762 66.2287 73.3795C65.4838 74.1456 64.5052 74.6422 63.447 74.7911C62.3889 74.9401 61.3112 74.7329 60.3837 74.2022C59.4091 73.6958 58.5792 72.9499 57.9721 72.0347C57.3649 71.1194 57.0004 70.0648 56.9127 68.97Z" fill="#FF87AF"/>
    <path d="M87.8344 71.8015C86.6346 73.0871 85.4004 74.3126 84.2477 75.6282C83.9011 76.1367 83.6136 76.683 83.3907 77.2566C84.0249 77.4451 84.7662 77.9422 85.2804 77.7665C87.8987 76.888 90.4527 75.8339 93.3281 74.724C92.7024 76.1638 92.231 77.4922 91.5668 78.7092C88.8305 83.3078 85.4038 87.4587 81.4066 91.0164C79.8868 92.4819 78.3084 93.8832 76.6715 95.2201C75.8046 95.9395 74.7622 96.4157 73.6509 96.6001C72.5396 96.7844 71.3992 96.6702 70.3465 96.2692C69.2938 95.8681 68.3665 95.1947 67.6595 94.3176C66.9525 93.4406 66.4912 92.3916 66.3227 91.2778C66.254 90.6585 66.3087 90.0317 66.4838 89.4337C66.6589 88.8357 66.9507 88.2784 67.3426 87.7939C73.174 81.4614 79.8384 75.9503 87.1531 71.4115C87.242 71.3771 87.3363 71.3582 87.4316 71.3558L87.8344 71.8015Z" fill="#FF87AF"/>
    <path d="M97.6724 54.7335L105.004 22.1659L110.147 23.37L107.494 31.4305C105.017 38.9296 102.51 46.4287 100.093 53.9364C99.6221 55.3248 99.0051 55.5819 97.6724 54.7335Z" fill="#FF6196"/>
    <path d="M89.3859 73.8885C90.1615 70.9274 90.9328 68.1892 91.5842 65.421C92.219 62.7364 93.4264 60.2207 95.1238 58.0461C96.1651 56.6791 97.3349 57.2234 98.5305 57.519C99.6361 57.789 99.9146 58.5989 99.9618 59.6616C100.136 62.6005 99.2411 65.5031 97.4421 67.8335C95.3003 70.4887 92.5318 72.5695 89.3859 73.8885Z" fill="#FF6196"/>
    <path d="M119.944 3.83936C120.008 2.88498 119.983 1.92674 119.871 0.976845C119.783 0.711516 119.607 0.483621 119.374 0.329779C119.184 0.175101 118.961 0.0652523 118.723 0.00838844C118.585 -0.0173228 118.393 0.124089 118.208 0.325493C118.03 0.516698 117.878 0.731542 117.758 0.96399C117.65 1.37492 117.627 1.80359 117.69 2.22384V21.3873C112.023 21.7895 106.357 20.6022 101.329 17.9591C99.685 17.2161 98.3781 15.8856 97.6646 14.2286C96.951 12.5717 96.8824 10.7079 97.4722 9.00304C98.1107 6.59046 98.8178 4.19932 99.5462 1.81246C99.7177 1.24253 99.8162 0.655454 99.5462 0.321208C99.3961 0.158494 99.1888 0.0602123 98.9677 0.0469556C98.6847 0.0500088 98.4105 0.146413 98.1878 0.321208C97.8674 0.512888 97.6121 0.796593 97.4551 1.1354C96.598 3.70652 95.8438 6.30336 95.1882 8.9259C94.9407 9.95936 94.874 11.0279 94.9911 12.0841C95.1569 13.9952 95.8676 15.8186 97.0389 17.3377C98.2102 18.8569 99.7928 20.0081 101.599 20.6545C102.409 20.993 102.884 21.3273 102.657 22.3943C102.344 23.7484 102.04 25.1026 101.732 26.461C99.632 35.6656 97.5436 44.8745 95.4667 54.0877C95.4082 54.4985 95.2275 54.8822 94.9482 55.189C93.5793 56.2771 92.4291 57.6148 91.5586 59.1314C90.4493 61.1327 89.6817 63.3052 89.2875 65.5592C89.2118 66.2782 88.952 66.9655 88.5331 67.5548C88.1143 68.144 87.5505 68.6153 86.8963 68.9231C85.1094 69.8273 83.4682 70.9971 81.4841 72.2141C81.6164 69.8282 81.5906 67.4361 81.407 65.0535C81.256 64.3206 81.288 63.5618 81.5003 62.8442C81.7126 62.1267 82.0985 61.4725 82.624 60.9397C85.2375 58.3506 87.1005 55.1015 88.0148 51.538C88.2878 50.712 88.3627 49.8333 88.2333 48.9729C88.104 48.1126 87.774 47.2948 87.27 46.5856C86.7661 45.8764 86.1023 45.2957 85.3325 44.8905C84.5626 44.4853 83.7081 44.267 82.8382 44.2531C81.4298 44.2374 80.047 44.6304 78.8573 45.3844C74.7683 48.1767 70.7504 51.0715 66.8073 54.0663C64.4633 55.8318 62.2564 57.7858 59.9852 59.637C59.8873 59.5319 59.8025 59.4154 59.7324 59.2899C59.689 58.9744 59.604 58.6661 59.4796 58.3729C57.5812 55.4418 58.8968 53.3121 60.958 51.1223C63.1053 48.8714 64.2919 45.8727 64.2661 42.7619C64.3327 41.1769 63.8363 39.6194 62.8649 38.3653C62.3474 37.7286 61.7096 37.2001 60.988 36.8097C59.9629 36.2487 58.7908 36.0145 57.6289 36.1386C56.467 36.2627 55.3708 36.7391 54.4873 37.5039L53.2917 38.361C50.5621 40.315 47.7981 42.2177 45.1713 44.3089C41.3364 47.3705 37.5841 50.5341 33.9183 53.7963C32.2042 55.309 30.953 57.3744 29.1746 58.78C19.9014 66.1034 10.5297 73.294 1.1922 80.5317C0.871132 80.7232 0.575909 80.9551 0.313735 81.2216C0.286745 81.2606 0.263774 81.3023 0.245172 81.3459C0.0480521 81.8044 -0.119071 82.5629 0.112331 82.8414C0.169054 82.9019 0.23761 82.95 0.313735 82.9828C0.721934 83.1523 1.17623 83.175 1.5993 83.0471C2.15985 82.7563 2.67399 82.3837 3.12483 81.9415L29.2646 61.6811C29.7317 61.3168 30.2245 60.9869 30.7944 60.5755C30.9476 62.2831 31.5807 63.9125 32.6206 65.2757C33.6604 66.6388 35.0646 67.68 36.671 68.2791C38.2774 68.8782 40.0204 69.0107 41.6989 68.6614C43.3774 68.312 44.9229 67.4951 46.1569 66.3048C49.1565 63.4166 52.2547 60.6141 55.3101 57.773L56.4242 56.7274C58.2926 60.3827 58.104 61.3468 55.2329 63.648C37.5893 77.7663 19.9585 91.8875 2.34064 106.012C1.59073 106.611 0.108046 107.156 1.08079 108.433C2.05353 109.71 2.94914 108.394 3.69476 107.798C20.2242 94.5972 36.7423 81.3787 53.2489 68.1432C53.6774 67.8003 54.1273 67.4961 54.7487 67.0419V68.4303C54.6647 70.0345 55.0599 71.6275 55.8841 73.0064C56.7082 74.3853 57.924 75.4879 59.3767 76.1736C60.8007 76.897 62.4173 77.1503 63.9942 76.897C65.5711 76.6436 67.0271 75.8968 68.1528 74.7638C71.551 71.7642 74.9149 68.7045 78.2959 65.6792C78.5102 65.4863 78.7587 65.3406 79.153 65.0407C79.6367 67.9861 79.542 70.9975 78.8744 73.9068C78.7096 74.2936 78.4394 74.6262 78.0945 74.8667C75.3005 77.2807 72.4966 79.6847 69.6826 82.0787L28.4075 117.115C27.9243 117.437 27.4972 117.836 27.1434 118.297C27.0305 118.507 26.9672 118.741 26.9582 118.979C26.9493 119.217 26.9951 119.455 27.092 119.673C27.2856 119.818 27.5094 119.917 27.7468 119.964C27.9842 120.011 28.2291 120.004 28.4633 119.943C28.648 119.889 28.8181 119.794 28.9603 119.664C29.1746 119.493 29.3889 119.274 29.5817 119.099L59.4196 93.8158C60.8551 92.5988 62.3035 91.399 63.8162 90.1306C63.8928 90.3343 63.9544 90.5434 64.0005 90.7562C64.0861 92.4102 64.6556 94.0027 65.6383 95.3358C66.6211 96.669 67.9737 97.6842 69.5284 98.2553C71.0641 98.9225 72.7662 99.108 74.4096 98.7874C76.053 98.4669 77.5606 97.6552 78.733 96.4598C80.7213 94.6472 82.684 92.8045 84.6552 90.9705C85.9407 89.792 87.1834 88.6093 88.5376 87.3366C88.7898 88.2162 88.9944 89.1089 89.1503 90.0106C89.3473 92.1094 89.0578 94.2253 88.3042 96.1941C87.5506 98.1628 86.3532 99.9313 84.8051 101.362C79.8386 106.71 74.7606 111.942 69.7255 117.217C69.3955 117.56 68.9413 117.843 68.7613 118.25C68.5813 118.657 68.4657 119.454 68.6799 119.626L68.7399 119.664C69.1892 119.883 69.6945 119.959 70.1883 119.883C70.3267 119.854 70.45 119.777 70.5354 119.664C70.6554 119.54 70.7711 119.386 70.8868 119.27C74.9663 115.053 79.0672 110.858 83.1168 106.611C84.7513 104.955 86.288 103.205 87.7191 101.371C89.5851 99.3049 90.8224 96.7492 91.2855 94.0042C91.7486 91.2591 91.4181 88.439 90.3331 85.8754C90.2164 85.3037 90.3304 84.7092 90.6502 84.2213C90.9287 83.7413 91.2372 83.2742 91.5543 82.8114C92.569 81.494 93.4141 80.0544 94.0698 78.5262C95.3368 74.7758 97.2817 71.2898 99.8076 68.2417C100.969 66.7695 101.768 65.0448 102.14 63.207C102.512 61.3692 102.447 59.4696 101.95 57.6616C101.775 56.9741 101.775 56.2535 101.95 55.5661C104.119 48.8512 106.351 42.1577 108.562 35.4599L111.519 26.4867L112.432 23.7142C114.377 23.7142 116.211 23.6756 118.037 23.7142C119.554 23.757 120.017 23.0457 120 21.5715C119.91 15.658 119.944 9.74866 119.944 3.83936ZM43.9371 65.1435C42.9791 66.0304 41.7647 66.591 40.4683 66.745C39.1719 66.8989 37.86 66.6383 36.7208 66.0006C35.587 65.5162 34.631 64.6925 33.9842 63.6429C33.3373 62.5932 33.0314 61.369 33.1084 60.1384C33.2457 58.6271 33.8732 57.202 34.8953 56.0803C41.5388 49.7455 48.7368 44.019 56.4028 38.9695C56.8212 38.6737 57.2972 38.4693 57.7998 38.3696C58.1369 38.3074 58.4825 38.3074 58.8196 38.3696C59.2234 38.4482 59.6086 38.6023 59.9552 38.8238C60.656 39.2588 61.2224 39.8796 61.5916 40.6171C61.9607 41.3547 62.1182 42.1802 62.0464 43.0019C61.9576 45.1413 61.2092 47.2009 59.9038 48.8983C55.237 54.9207 49.878 60.3733 43.9371 65.1435ZM66.2202 73.4097C65.4752 74.1758 64.4966 74.6724 63.4385 74.8213C62.3803 74.9703 61.3027 74.7631 60.3752 74.2324C59.3988 73.7249 58.5678 72.977 57.9605 72.0593C57.3533 71.1416 56.9897 70.0844 56.9042 68.9874C56.8047 68.0401 56.9263 67.0828 57.2594 66.1905C57.5925 65.2982 58.1281 64.4954 58.8239 63.8451C65.3288 57.8454 72.3078 52.3811 79.6929 47.5056C79.9157 47.3642 80.1214 47.2228 80.3657 47.0771C81.0107 46.6114 81.7923 46.3734 82.5875 46.4005C83.3826 46.4277 84.1462 46.7185 84.758 47.2271C85.35 47.7285 85.7688 48.4038 85.955 49.157C86.1412 49.9101 86.0852 50.7028 85.795 51.4223C84.8607 54.5342 83.1364 57.351 80.7899 59.5985C76.0633 64.3208 71.1482 68.8674 66.2288 73.3925L66.2202 73.4097ZM91.5501 78.7276C88.8175 83.319 85.3967 87.4638 81.407 91.0176C79.8872 92.4831 78.3088 93.8844 76.6718 95.2214C75.8049 95.9408 74.7625 96.417 73.6512 96.6013C72.5399 96.7856 71.3996 96.6714 70.3469 96.2704C69.2942 95.8694 68.3669 95.1959 67.6599 94.3189C66.9529 93.4419 66.4915 92.3928 66.323 91.279C66.2543 90.6597 66.3091 90.0329 66.4842 89.435C66.6592 88.837 66.9511 88.2796 67.3429 87.7951C73.1743 81.4627 79.8387 75.9515 87.1534 71.4128C87.2424 71.3783 87.3366 71.3594 87.432 71.3571L87.8605 71.7856C86.6606 73.0712 85.4265 74.2967 84.2738 75.6123C83.9272 76.1208 83.6396 76.6671 83.4167 77.2407C84.0509 77.4292 84.7923 77.9263 85.3065 77.7506C87.3763 77.0564 89.4117 76.2508 91.5929 75.3937L93.3541 74.7081C92.6942 76.1651 92.2228 77.4935 91.5586 78.7105L91.5501 78.7276ZM97.4336 67.8646C95.8352 69.8996 93.8317 71.5806 91.5501 72.8012C90.8444 73.1954 90.1202 73.564 89.3775 73.9068C90.1402 70.9885 90.903 68.2846 91.5501 65.5506L91.5758 65.4392C92.2106 62.7546 93.418 60.2389 95.1153 58.0644C96.1566 56.6974 97.3265 57.2416 98.5221 57.5373C99.6277 57.8073 99.9062 58.6172 99.9533 59.6799C100.129 62.6162 99.2372 65.5171 97.4422 67.8475L97.4336 67.8646ZM107.461 31.4404C104.984 38.9395 102.477 46.4386 100.06 53.9463C99.6062 55.3561 98.9892 55.6132 97.6565 54.7648L104.011 26.5124L104.988 22.1758L110.131 23.3799L109.098 26.5124L107.461 31.4404Z" fill="black"/>
  </g>

  <g id="figmaSvg">
    <mask id="mask0_4533_1223" style="mask-type:luminance" maskUnits="userSpaceOnUse" x="0" y="0" width="53" height="80">
    <path d="M0.828125 0.9375H52.9219V79.0625H0.828125V0.9375Z" fill="white"/>
    </mask>
    <g mask="url(#mask0_4533_1223)">
    <path d="M13.8543 79.0625C21.0418 79.0625 26.875 73.2293 26.875 66.0418V53.0207H13.8543C6.66685 53.0207 0.833252 58.8543 0.833252 66.0418C0.833252 73.2293 6.66685 79.0625 13.8543 79.0625Z" fill="#0ACF83"/>
    <path d="M0.833252 40C0.833252 32.8125 6.66685 26.9793 13.8543 26.9793H26.875V53.0207H13.8543C6.66685 53.0207 0.833252 47.1875 0.833252 40Z" fill="#A259FF"/>
    <path d="M0.833252 13.9582C0.833252 6.7707 6.66685 0.9375 13.8543 0.9375H26.875V26.9793H13.8543C6.66685 26.9793 0.833252 21.1457 0.833252 13.9582Z" fill="#F24E1E"/>
    <path d="M26.875 0.9375H39.8957C47.0832 0.9375 52.9168 6.7707 52.9168 13.9582C52.9168 21.1457 47.0832 26.9793 39.8957 26.9793H26.875V0.9375Z" fill="#FF7262"/>
    <path d="M52.9168 40C52.9168 47.1875 47.0832 53.0207 39.8957 53.0207C32.7082 53.0207 26.875 47.1875 26.875 40C26.875 32.8125 32.7082 26.9793 39.8957 26.9793C47.0832 26.9793 52.9168 32.8125 52.9168 40Z" fill="#1ABCFE"/>
    </g>
  </g>

  <g id="photoshopSvg">
    <path d="M3.93411 4.42578H85.5995V85.2804H3.93411V4.42578Z" fill="url(#paint0_radial_6_7747)"/>
    <path d="M3.93406 4.42575H85.5994V85.2803H3.93406V4.42575ZM0.221191 89.0596H89.2944V0.646484H0.221191V89.0596ZM60.2876 36.9311C57.3602 36.9311 56.3605 38.4392 56.3605 39.6929C56.3605 41.0556 57.021 42.0004 60.9659 44.0717C66.7852 46.9425 68.6059 49.7043 68.6059 53.7379C68.6059 59.7884 64.0719 63.0408 57.9492 63.0408C54.7183 63.0408 51.9337 62.3685 50.345 61.4237C50.0772 61.3146 50.0415 61.1148 50.0415 60.8241V55.246C50.0415 54.8645 50.22 54.7554 50.4878 54.9371C52.8262 56.4815 55.5037 57.172 57.9492 57.172C60.8767 57.172 62.1084 55.9183 62.1084 54.2285C62.1084 52.8658 61.2515 51.6666 57.503 49.6861C52.2371 47.1242 50.0415 44.526 50.0415 40.1653C50.0415 35.2958 53.7901 31.244 60.2876 31.244C63.4828 31.244 65.7141 31.7346 66.928 32.2979C67.2314 32.4796 67.3028 32.7884 67.3028 33.061V38.2393C67.3028 38.5482 67.1243 38.7299 66.7495 38.6209C65.1072 37.567 62.6974 36.9311 60.2876 36.9311ZM28.3712 41.419C29.228 41.4917 29.8885 41.4917 31.3701 41.4917C35.7077 41.4917 39.7954 39.9472 39.7954 33.9331C39.7954 29.1364 36.868 26.7198 31.9234 26.7198C30.4418 26.7198 29.0317 26.7925 28.3533 26.8288L28.3712 41.419ZM21.7487 21.3598C21.7487 21.0872 22.2664 20.9055 22.5698 20.9055C24.9439 20.7965 28.4783 20.7239 32.1376 20.7239C42.4194 20.7239 46.4358 26.4654 46.4358 33.7878C46.4358 43.3813 39.5991 47.5058 31.2094 47.5058C29.7992 47.5058 29.3173 47.4331 28.3176 47.4331V61.9324C28.3176 62.2413 28.2105 62.3867 27.8714 62.3867H22.195C21.8915 62.3867 21.7487 62.2776 21.7487 61.9324V21.3598Z" fill="#31C5F0"/>
    <defs>
    <radialGradient id="paint0_radial_6_7747" cx="0" cy="0" r="1" gradientUnits="userSpaceOnUse" gradientTransform="translate(30.8385 22.5656) scale(62.0565 61.1565)">
    <stop stop-color="#34364E" stop-opacity="0.98"/>
    <stop offset="1" stop-color="#0C0824"/>
    </radialGradient>
    </defs>
  </g>

  <g id="reactSvg">
    <path d="M93.1056 32.7027C91.9031 32.2887 90.6904 31.9051 89.4687 31.5523C89.6739 30.7106 89.8628 29.8792 90.0305 29.0623C92.7838 15.6483 90.9839 4.84178 84.8361 1.28375C78.9416 -2.12722 69.3016 1.42949 59.5659 9.93342C58.6064 10.773 57.6682 11.6368 56.7521 12.524C56.1389 11.934 55.5149 11.3556 54.8803 10.7888C44.6767 1.69616 34.4493 -2.13608 28.3081 1.43215C22.4189 4.85374 20.675 15.0127 23.1538 27.7254C23.4004 28.9844 23.6788 30.237 23.9888 31.4819C22.5411 31.8947 21.1442 32.3342 19.8073 32.8019C7.84441 36.9881 0.204742 43.5483 0.204742 50.3529C0.204742 57.3808 8.40627 64.43 20.8661 68.7043C21.8763 69.0495 22.8948 69.3692 23.9209 69.6634C23.5876 71.0042 23.2918 72.354 23.0337 73.7114C20.6706 86.2035 22.516 96.1223 28.3893 99.5222C34.4555 103.033 44.637 99.4247 54.5506 90.7268C55.3545 90.0196 56.1407 89.2925 56.9084 88.546C57.9004 89.5066 58.9189 90.4393 59.9627 91.343C69.566 99.6365 79.0501 102.985 84.9177 99.5762C90.9782 96.055 92.948 85.3995 90.3907 72.4356C90.1892 71.42 89.9633 70.4094 89.7132 69.4047C90.4282 69.1921 91.13 68.9732 91.8141 68.7455C104.767 64.4384 113.195 57.4747 113.195 50.3529C113.195 43.5234 105.309 36.919 93.1056 32.7027ZM90.2962 64.1474C89.6783 64.3525 89.0445 64.5505 88.3983 64.7432C86.9683 60.1995 85.0386 55.3684 82.6769 50.3764C84.9305 45.5036 86.786 40.734 88.1759 36.22C89.3318 36.5558 90.4534 36.9097 91.5347 37.2832C101.991 40.8961 108.369 46.2372 108.369 50.3529C108.369 54.7367 101.481 60.4277 90.2962 64.1474ZM85.6557 73.3765C86.7865 79.1087 86.9476 84.2916 86.1986 88.3435C85.5259 91.9844 84.1727 94.4115 82.499 95.3839C78.9385 97.4526 71.3235 94.7637 63.111 87.6706C62.1401 86.8305 61.1927 85.9634 60.2699 85.0703C63.4539 81.5756 66.6357 77.5131 69.7412 73.0008C75.2036 72.5144 80.3641 71.7188 85.0439 70.6331C85.2694 71.5426 85.4734 72.4573 85.6557 73.3765ZM38.7257 95.0264C35.2468 96.2592 32.4759 96.2946 30.8009 95.3254C27.2369 93.2624 25.7552 85.298 27.7762 74.6151C28.0165 73.3527 28.2915 72.0972 28.6011 70.8502C33.2293 71.8779 38.3523 72.6168 43.8275 73.0624C46.9542 77.4776 50.2278 81.5358 53.5271 85.0894C52.8259 85.7703 52.1082 86.4338 51.3745 87.0793C46.9904 90.9252 42.5974 93.654 38.7257 95.0264ZM22.4277 64.1204C16.9181 62.2302 12.368 59.7738 9.24929 57.0933C6.44659 54.6848 5.032 52.2932 5.032 50.3529C5.032 46.2234 11.1657 40.9564 21.3962 37.3766C22.6378 36.9425 23.9372 36.5327 25.2856 36.1482C26.6997 40.7641 28.5544 45.5904 30.7925 50.4707C28.5252 55.4233 26.6441 60.3267 25.2163 64.997C24.2797 64.7278 23.3499 64.4355 22.4277 64.1204ZM27.891 26.7947C25.7676 15.9031 27.1777 7.68706 30.7268 5.62497C34.5067 3.42867 42.8653 6.56011 51.6755 14.4115C52.25 14.9247 52.8152 15.4482 53.3708 15.9819C50.0879 19.52 46.8443 23.548 43.7454 27.9371C38.4313 28.4315 33.3445 29.2253 28.6678 30.2889C28.3797 29.131 28.1206 27.9661 27.891 26.7951V26.7947ZM76.6301 38.8739C75.5255 36.9589 74.3798 35.0679 73.194 33.2024C76.7991 33.66 80.2533 34.2673 83.4969 35.0098C82.5233 38.1425 81.3095 41.4175 79.8808 44.7753C78.8365 42.7867 77.7527 40.8191 76.6301 38.8739ZM56.7544 19.4443C58.9806 21.8652 61.2104 24.5678 63.4036 27.5003C58.9546 27.2894 54.4982 27.2886 50.0491 27.4977C52.2444 24.5922 54.4932 21.8931 56.7544 19.4443ZM36.751 38.9071C35.6425 40.8367 34.5789 42.792 33.5613 44.7713C32.1559 41.4255 30.9532 38.1355 29.9712 34.9584C33.1949 34.2346 36.6327 33.6427 40.2149 33.1935C39.0159 35.0704 37.8609 36.9754 36.751 38.9067V38.9071ZM40.3177 67.8569C36.6169 67.4423 33.1274 66.881 29.9045 66.1767C30.902 62.9429 32.1312 59.5829 33.567 56.1653C34.5887 58.1461 35.6567 60.1026 36.77 62.033C37.9149 64.0176 39.1004 65.9614 40.3177 67.8569ZM56.8876 81.6027C54.5996 79.1255 52.3177 76.3848 50.0892 73.4372C52.2528 73.5222 54.4583 73.5656 56.7001 73.5656C59.0031 73.5656 61.2797 73.5138 63.5205 73.4137C61.3203 76.4145 59.0989 79.1592 56.8876 81.6027ZM79.9263 55.9907C81.4366 59.446 82.7095 62.7883 83.7203 65.9667C80.4444 66.7171 76.9073 67.3214 73.1804 67.7701C74.3746 65.8699 75.5311 63.9461 76.6491 61.9998C77.7858 60.0214 78.8784 58.0179 79.9263 55.9907ZM72.468 59.5794C70.7564 62.5634 68.9487 65.4909 67.0475 68.357C63.6038 68.6018 60.1524 68.7234 56.7001 68.7216C53.1837 68.7216 49.7635 68.6118 46.47 68.3974C44.5192 65.5378 42.677 62.6053 40.9471 59.6059H40.9476C39.2259 56.6225 37.6177 53.5745 36.1265 50.4685C37.6139 47.3618 39.2172 44.3124 40.933 41.3267L40.9326 41.3271C42.6477 38.3407 44.4753 35.4206 46.4113 32.5734C49.7714 32.3182 53.2172 32.1853 56.6996 32.1853H56.7001C60.1984 32.1853 63.6485 32.3195 67.0078 32.5765C68.9243 35.4195 70.7402 38.3295 72.4521 41.301C74.1736 44.2801 75.7981 47.3147 77.3231 50.3999C75.8138 53.5166 74.1944 56.5783 72.468 59.5794ZM82.4253 5.48056C86.2087 7.67067 87.6802 16.5024 85.303 28.0842C85.1512 28.8231 84.9808 29.5757 84.7954 30.339C80.1072 29.2528 75.0169 28.4452 69.6874 27.9433C66.5828 23.506 63.3656 19.4717 60.1361 15.9792C60.9825 15.1604 61.849 14.3628 62.7349 13.5871C71.0768 6.30141 78.8732 3.42468 82.4253 5.48056ZM56.7001 40.2263C62.2724 40.2263 66.7898 44.7603 66.7898 50.3529C66.7898 55.9456 62.2724 60.4795 56.7001 60.4795C51.1278 60.4795 46.6104 55.9456 46.6104 50.3529C46.6104 44.7603 51.1278 40.2263 56.7001 40.2263Z" fill="#00D8FF"/>
  </g>

  <g id="reduxSvg">
    <path d="M72.7792 69.5627C76.6509 69.1619 79.5882 65.8242 79.4546 61.8184C79.3214 57.8131 75.9833 54.6086 71.9779 54.6086H71.7111C67.5718 54.7422 64.3677 58.2135 64.5013 62.3525C64.6349 64.3553 65.4357 66.091 66.6374 67.2926C62.098 76.2385 55.1554 82.7807 44.7415 88.2549C37.6652 91.9934 30.3222 93.3287 22.9792 92.3943C16.971 91.593 12.298 88.923 9.3603 84.5164C5.08817 77.9742 4.68776 70.8975 8.29268 63.8213C10.8296 58.7475 14.8345 55.009 17.3714 53.1398C16.8374 51.4041 16.0361 48.4668 15.6357 46.3307C-3.72371 60.35 -1.72084 79.3094 4.15375 88.2549C8.55949 94.9311 17.505 99.0701 27.3849 99.0701C30.055 99.0701 32.7251 98.8029 35.3955 98.1357C52.4853 94.7975 65.4361 84.65 72.7792 69.5627ZM96.2775 53.0066C86.1304 41.1234 71.1771 34.5811 54.0873 34.5811H51.9513C50.7496 32.1779 48.2128 30.5754 45.4091 30.5754H45.1419C41.0033 30.709 37.7992 34.1803 37.9324 38.3197C38.066 42.325 41.4037 45.5295 45.4091 45.5295H45.6759C48.6132 45.3959 51.1501 43.5266 52.2181 40.9898H54.6214C64.7685 40.9898 74.3812 43.927 83.0599 49.6684C89.7353 54.0746 94.5419 59.816 97.2119 66.7586C99.4816 72.3664 99.348 77.8406 96.9447 82.5139C93.2066 89.5902 86.9316 93.4623 78.6537 93.4623C73.3132 93.4623 68.2398 91.8598 65.5693 90.6582C64.1009 91.9934 61.4304 94.1295 59.5611 95.4652C65.3025 98.1352 71.1771 99.6041 76.7845 99.6041C89.6017 99.6041 99.0812 92.5275 102.686 85.4512C106.558 77.707 106.291 64.3553 96.2775 53.0066ZM28.4529 71.832C28.5865 75.8377 31.9242 79.0418 35.9296 79.0418H36.1968C40.3357 78.9086 43.5398 75.4369 43.4062 71.2979C43.273 67.2922 39.9349 64.0881 35.9296 64.0881H35.6628C35.3955 64.0881 34.9947 64.0881 34.7283 64.2213C29.2542 55.1422 26.9845 45.2623 27.7857 34.5807C28.3193 26.5697 30.9898 19.6266 35.6628 13.8852C39.5345 8.94508 47.0111 6.5418 52.0849 6.40861C66.2369 6.14139 72.2447 23.7656 72.6455 30.8422C74.3812 31.2426 77.3185 32.1775 79.3214 32.8451C77.7189 11.2156 64.3677 0 51.5509 0C39.5345 0 28.4529 8.67869 24.0468 21.4963C17.9054 38.5865 21.9107 55.009 29.3874 67.9602C28.7201 68.8947 28.3193 70.3635 28.4529 71.8324V71.832Z" fill="#764ABC"/>
  </g>

  <g id="greensockSvg">
    <path d="M67.8306 119.745C66.2668 119.471 64.6468 118.729 63.7281 117.908C63.1044 117.253 62.7485 116.389 62.7306 115.485C62.7306 114.566 63.1993 113.276 63.9418 111.99C64.3918 111.266 64.7443 110.486 64.9956 109.665C65.1531 109.099 65.4831 108.18 65.7381 107.595L66.1881 106.523L66.3043 99.3563C66.3643 95.3925 66.4806 91.7213 66.5781 91.1513C66.8331 89.5088 67.2606 87.9075 67.8268 86.3475L68.2581 85.3125L67.6318 84.9413C67.0656 84.5888 66.5968 84.1013 64.7406 81.8925C62.4568 79.1963 59.4493 77.7113 55.1893 77.205C53.8018 77.07 52.3956 76.9688 50.9893 76.9125C44.7381 76.62 41.1643 75.3113 37.9431 72.1463C35.5393 69.7838 34.2906 67.0275 33.7843 62.9663C33.1018 57.4763 32.3406 54.6638 30.9343 52.38C30.5877 51.816 30.1885 51.2861 29.7418 50.7975L29.1756 50.2313L27.9268 51.0338C27.2443 51.4838 26.2843 52.05 25.8156 52.305C24.2518 53.1638 22.7668 54.12 21.3418 55.155C17.8468 57.6938 14.0368 60.8775 11.9481 62.9663C11.0106 63.9038 10.5231 64.3125 10.3056 64.275C8.88058 64.0613 9.97183 57.8888 12.2968 53.2388C15.2668 47.2425 20.2656 41.715 26.0481 37.9838C30.7956 34.9163 38.4718 30.6975 42.0231 29.2125C48.3306 26.5763 56.4943 23.7225 62.0818 22.2C63.2556 21.8663 63.9756 21.5738 64.4631 21.2438C65.5581 20.4825 66.6306 20.1113 67.8606 20.0925C68.8956 20.0738 68.9931 20.055 69.9906 19.3875C71.1643 18.6263 71.5131 18.585 72.6868 18.9975L73.4481 19.2713L74.3856 18.6263L75.3231 18L76.6693 18.0188C77.7043 18.0375 78.1731 18 78.6231 17.805C79.1893 17.55 79.2081 17.5125 79.3656 16.575C79.7181 14.5425 79.7556 13.5263 79.5418 12.2963C79.2681 10.6763 79.2306 4.3875 79.5043 3.15375C79.7968 1.82625 79.9918 1.5525 80.9893 1.065C82.4743 0.341252 83.5881 0.127502 86.1456 0.127502C89.2693 0.127502 90.8518 0.558753 92.0256 1.69125C93.0793 2.7075 93.2556 5.08875 92.7081 10.6763C92.3743 13.8975 92.3368 14.7975 92.4343 16.905C92.4718 18.2513 92.5693 19.5225 92.6106 19.6988C92.6893 20.0325 92.7681 20.0513 93.9006 20.07C95.0143 20.0888 95.2093 20.1488 96.2631 20.6963C97.2793 21.225 98.0406 21.87 98.1981 22.3388C98.2168 22.4363 98.3931 22.4363 98.7043 22.3388C99.3081 22.1625 99.8368 22.3575 100.268 22.8863C100.523 23.22 100.677 23.2763 101.266 23.2763C102.068 23.2763 102.361 23.4713 103.024 24.45C103.335 24.8893 103.76 25.2344 104.254 25.4475C105.349 25.995 106.834 27.5175 107.401 28.7288C108.278 30.525 108.454 32.6138 107.907 34.4888C107.712 35.1938 107.712 35.2125 108.121 35.895C108.979 37.3613 109.294 39.1575 108.942 40.68L108.747 41.58L109.332 42.165C112.242 45.075 111.811 49.8225 108.259 54.06C107.862 54.544 107.527 55.0756 107.262 55.6425C106.579 57.4575 105.796 58.7288 104.783 59.7825L103.748 60.8363H102.694C101.641 60.8363 100.156 60.4838 99.2556 60.015C98.8843 59.82 98.8656 59.82 98.9443 60.0525C99.1806 60.9113 99.7656 64.4063 99.9606 66.3413C100.272 69.3113 100.174 73.6275 99.7656 75.4838C99.4669 76.8586 98.9664 78.1816 98.2806 79.41C97.8906 80.0363 97.8718 80.1713 97.9468 80.9325C98.0631 82.005 97.8118 83.805 97.3806 84.9938C96.8518 86.3813 96.6568 87.0263 96.5406 87.7275C96.4431 88.3313 96.4431 88.3313 96.8743 88.3313C97.4406 88.3313 97.7518 88.665 97.7518 89.3288C97.7518 89.6213 97.4968 91.2038 97.1856 92.8238C96.3268 97.3763 96.2668 97.8825 96.2668 102.296C96.2481 106.849 96.2481 106.808 97.2831 107.49L99.6081 108.994C101.608 110.321 103.75 111.422 105.994 112.275C109.257 113.565 109.707 113.895 109.707 114.99C109.707 115.478 109.609 115.654 109.201 116.044C107.952 117.255 105.488 117.529 100.527 117C97.9488 116.758 95.3611 116.635 92.7718 116.629C85.9356 116.531 84.9381 116.295 84.0418 114.596C83.5356 113.621 83.6331 112.35 84.3343 110.261C84.6456 109.343 84.9193 108.405 85.1556 107.449C85.6243 105.184 85.3131 102.488 84.2181 99.4425L83.2806 96.8438C82.3618 94.2075 81.8556 89.3813 82.4031 88.29C82.5006 88.0763 82.6768 88.035 83.1456 88.0538L83.7306 88.1138L84.2181 87.0975C84.5893 86.295 84.9981 85.77 86.1118 84.6563L87.5368 83.2313L87.4581 82.3125C87.3981 81.435 86.2468 77.175 86.0893 77.1938C86.0293 77.1938 85.7181 77.625 85.3656 78.1688C84.5068 79.4588 82.6131 81.45 81.5368 82.1738C81.0681 82.485 80.6781 82.8563 80.6781 82.9763C80.6593 83.505 80.2093 84.54 79.6618 85.26C79.1331 85.965 79.0956 86.0813 79.1743 86.7038C79.3093 87.6225 79.0168 90.57 78.6681 92.115C78.352 93.2622 77.9197 94.3742 77.3781 95.4338C76.0318 98.2275 75.0156 100.725 74.7606 101.88C74.5764 102.992 74.4587 104.114 74.4081 105.24C74.3481 106.568 74.2131 107.858 74.1156 108.131C73.9806 108.503 73.9806 108.795 74.0968 109.361C74.1943 109.77 74.2543 110.689 74.2318 111.413C74.2131 112.41 74.2918 113.055 74.5843 114.225C75.0906 116.216 75.1881 117.469 74.9556 118.211C74.7981 118.68 74.6443 118.856 74.1156 119.111C72.9418 119.715 69.6231 120.049 67.8268 119.738L67.8306 119.745ZM72.5743 118.144C73.2568 117.949 73.8456 117.364 73.8456 116.835C73.8456 116.599 73.6506 115.916 73.4143 115.313C72.9456 114.161 72.1431 111.113 72.1431 110.606C72.1431 110.351 72.1618 110.333 72.5518 110.546L72.9831 110.783V110.235C72.9205 109.73 72.8087 109.233 72.6493 108.75C72.2781 107.636 72.2406 107.618 69.8743 107.479L68.2731 107.4L67.6881 107.966C67.3664 108.297 67.0845 108.665 66.8481 109.061C66.5931 109.568 66.4956 110.333 66.6531 110.505C66.6906 110.565 67.0843 110.505 67.5118 110.408C67.7656 110.332 68.0274 110.287 68.2918 110.273C68.2918 110.291 67.8606 110.644 67.3168 111.015C64.9731 112.774 64.1518 113.846 64.1518 115.215C64.1518 116.64 65.4981 117.754 67.6093 118.088C69.0531 118.301 71.8656 118.361 72.5706 118.148L72.5743 118.144ZM104.352 115.819C104.937 115.114 104.858 114.394 104.116 113.573C103.684 113.141 103.197 112.77 102.649 112.478C102.102 112.185 101.554 111.851 101.007 111.503C100.017 110.861 98.9994 110.261 97.9581 109.706C97.0581 109.219 96.1806 108.709 95.3218 108.165L94.9693 107.891V102.521C94.9693 97.23 94.9506 97.1513 94.6768 97.23C93.3081 97.6013 91.0431 97.7775 88.1743 97.7175L85.0693 97.68L85.5193 98.775C86.3593 100.845 86.7906 103.62 86.7906 106.804C86.7906 107.996 86.7118 108.424 86.4193 109.264C86.2618 109.673 86.1268 110.085 85.9881 110.494C85.9281 110.67 86.1456 110.805 86.9443 111.041C87.5293 111.218 88.3881 111.394 88.8793 111.45L89.7793 111.548L89.6818 112.448C89.5843 113.464 89.7006 114.536 89.9556 114.87C90.1131 115.065 90.6981 115.144 93.4131 115.26C95.4643 115.358 97.6918 115.571 99.4468 115.826C100.969 116.063 102.612 116.258 103.099 116.258C103.921 116.276 103.999 116.239 104.348 115.826L104.352 115.819ZM73.0843 106.68C73.1631 106.62 73.2793 105.566 73.3206 104.318C73.4781 100.823 73.6131 100.313 75.3718 96.3675C76.8156 93.1463 77.5806 90.1388 77.5206 88.0088L77.4831 86.7375L76.9356 87.2663C75.8031 88.3988 76.5831 86.6213 77.9331 85.0388C78.9493 83.8275 79.3018 83.1638 79.4556 82.0913C79.5343 81.66 79.6918 81.4463 80.3556 80.94C82.8391 79.0639 84.7527 76.5349 85.8831 73.635C86.1568 72.93 86.8581 70.53 87.4468 68.3025C88.5418 64.1813 89.1268 62.4038 89.6556 61.6425C89.8506 61.35 89.9293 61.29 89.8918 61.485C89.6086 62.5324 89.387 63.5955 89.2281 64.6688C89.0706 65.625 88.7781 67.5 88.5831 68.8088C88.2118 71.4863 87.8218 73.2038 87.2931 74.5313L86.9406 75.4313L87.8781 77.8538C88.8531 80.3325 89.3031 82.1325 89.3818 83.8688L89.4418 84.8438L88.6806 85.0013C87.6758 85.1791 86.7792 85.7396 86.1793 86.565C85.5156 87.5213 85.1443 88.305 85.3206 88.4775C85.3993 88.5563 86.3556 88.7325 87.4506 88.8675C89.1493 89.0625 89.7943 89.0625 92.0406 88.9275C93.0156 88.89 93.9756 88.7925 94.9318 88.6538C95.1456 88.575 95.3631 88.1475 95.7118 87.0338C96.5143 84.4763 96.6681 83.5763 96.5706 81.78L96.4918 80.1975L96.9006 79.6688C97.8568 78.4575 98.5993 76.2713 98.9106 73.71C99.2818 70.5863 98.5993 64.0425 97.3281 58.4175C96.7243 55.74 96.4693 54.1388 96.4693 52.9688V51.9338L95.5131 52.0313C92.0743 52.4025 87.9156 52.305 85.3768 51.7763C83.9893 51.5025 80.4943 50.4675 79.7331 50.1338L79.1293 49.86L79.0506 50.5425C78.9906 50.9138 78.9343 51.285 78.8556 51.675C78.7393 52.0838 78.7768 52.1813 79.5006 52.8863C80.4006 53.805 80.6743 54.2738 80.6743 54.8963C80.6743 55.2863 80.4606 55.6013 79.3656 56.7338C78.5805 57.5715 77.7094 58.3244 76.7668 58.98L75.4956 59.8388L74.9481 61.7325C72.9943 68.6663 72.6231 74.9738 73.9131 79.485L74.2243 80.6175L73.5981 81.3975C71.2543 84.345 69.8668 86.5913 69.6531 87.8438C69.5281 88.4605 69.3843 89.0733 69.2218 89.6813C68.7156 91.6163 68.3218 94.4475 68.1493 97.515C68.0291 100.083 67.8604 102.648 67.6431 105.21L67.5456 105.971L68.5206 106.264C69.0681 106.44 69.8893 106.635 70.3581 106.714C71.2356 106.849 72.8593 106.811 73.1106 106.676L73.0843 106.68ZM92.0481 95.9363C93.5706 95.8388 94.9581 95.6025 95.2318 95.37C95.3481 95.2913 95.4868 94.8825 95.5243 94.47L95.6218 93.7275L94.4106 94.0013C93.4543 94.1963 92.4981 94.3125 91.5381 94.3913C89.2318 94.4888 86.9106 94.4288 84.6231 94.1963C83.8618 94.08 83.8618 94.08 84.0943 95.0738C84.2893 95.8163 84.3306 95.8538 86.3218 95.9925C87.6493 96.1088 89.5056 96.09 92.0443 95.9325L92.0481 95.9363ZM90.7768 92.5388C92.7681 92.3625 95.2506 91.935 95.7381 91.68C95.8956 91.6013 96.0306 91.3088 96.0906 90.975L96.2668 89.94L96.3643 89.4525L95.8768 89.55C93.7093 90 92.0668 90.135 88.7856 90.135C85.5831 90.135 85.2118 90.1163 84.3718 89.8238C84.049 89.6877 83.7053 89.6078 83.3556 89.5875C83.2206 89.6663 83.1981 90.78 83.3181 91.56C83.3968 92.0288 83.4756 92.1075 83.9443 92.2425C85.4293 92.6513 87.9306 92.7488 90.7806 92.5163L90.7768 92.5388ZM54.5293 74.9213C59.5281 73.4775 66.0718 69.2363 71.4231 63.9263C73.1631 62.1863 73.3768 61.9538 73.6093 61.1738L73.9206 60.1763C73.9581 60.0975 73.6468 59.9625 73.2381 59.865C72.1656 59.61 71.3443 58.9875 71.3443 58.4213C71.3443 58.0875 71.1493 57.7575 70.5831 57.15C69.6643 56.115 69.4318 55.665 69.3343 54.6713L69.2556 53.8688L68.1606 53.0888C67.5343 52.6388 65.3481 51.4275 63.0231 50.2575C61.2528 49.3939 59.52 48.4555 57.8293 47.445C55.8756 46.1363 54.5668 44.5725 53.8243 42.72C53.6893 42.3488 53.5131 42.0375 53.4531 42.0375C53.2956 42.0375 48.9006 46.275 47.0256 48.2663C42.3981 53.1488 39.2143 57.3863 37.2006 61.3125C36.6943 62.2875 36.1468 63.4425 35.9893 63.87L35.6968 64.65L36.0493 65.9588C36.2631 66.6638 36.7131 67.815 37.0656 68.4975C38.2956 70.92 39.7618 72.3825 42.1843 73.575C44.7831 74.865 47.0856 75.315 50.9331 75.255C53.0031 75.2363 53.6106 75.1763 54.5256 74.9025L54.5293 74.9213ZM15.0756 57.7913C18.3568 54.8813 22.8868 51.6975 28.4368 48.3975C32.0706 46.23 46.1143 39.1988 52.5793 36.3263C53.7531 35.7975 54.8068 35.31 54.9231 35.2538C55.0393 35.175 55.3731 34.335 55.6843 33.3975C57.0531 29.0625 57.7356 28.2038 60.2143 27.6375C60.5256 27.5588 60.6043 27.4613 60.6043 27.15C60.6043 26.5838 60.9943 25.275 61.3281 24.69C61.5831 24.24 61.5831 24.2213 61.3656 24.2813C61.2306 24.3188 60.4093 24.555 59.5506 24.81C47.6368 28.2488 37.2268 32.8163 28.2418 38.52C18.6531 44.6138 13.1256 51.9188 11.5243 60.6675L11.4081 61.3125L12.5818 60.1613C13.2081 59.5163 14.3406 58.4625 15.0831 57.8175L15.0756 57.7913ZM103.456 59.4525C104.412 58.965 105.897 56.7188 106.444 54.9413C106.602 54.315 106.913 53.73 107.363 53.2425C108.807 51.6413 109.999 48.7313 110.018 46.74C110.018 43.635 108.259 42.4425 105.702 43.77C105.368 43.9275 105.098 44.0438 105.057 44.0063C104.922 43.8713 105.642 43.1663 106.523 42.6188C107.674 41.8575 107.892 41.4075 107.892 39.7875C107.909 38.4781 107.52 37.1955 106.778 36.1163C106.426 35.5875 106.291 35.2388 106.347 35.0213L106.699 33.7125C107.187 31.9725 107.011 29.9813 106.249 28.7138C105.117 26.8013 103.729 25.8638 101.794 25.7063L100.662 25.6275L101.326 26.37C103.298 28.5 104.254 31.1738 103.864 33.4613C103.669 34.635 103.493 34.8675 102.361 35.3175L101.697 35.5913L101.776 36.4913C101.911 37.9575 101.659 39.03 100.722 41.0025C100.253 42 99.9006 42.8963 99.9418 42.9938C100.058 43.3275 101.348 43.95 102.364 44.205L103.362 44.4413L102.736 44.655C101.914 44.91 101.738 45.2813 101.738 46.6275C101.738 47.8575 101.914 48.3675 102.811 49.7138C103.219 50.2988 103.493 50.9063 103.534 51.255C103.613 51.8025 103.594 51.84 103.144 51.9975C102.634 52.1407 102.11 52.2262 101.581 52.2525C99.7431 52.3688 99.6081 52.4288 98.7868 53.2088C98.0443 53.9138 98.0256 53.9513 98.0256 54.7313C98.0256 55.8038 98.4343 57.975 98.6893 58.2675C99.0231 58.62 100.876 59.5388 101.599 59.6738C102.224 59.8305 102.883 59.7545 103.456 59.46V59.4525ZM76.4031 57.99C77.5956 57.0525 78.5331 56.115 79.0581 55.3125C79.3918 54.825 79.4106 54.7275 79.2531 54.315C78.9793 53.6888 77.1831 52.0688 76.1856 51.5813C75.5209 51.2835 74.8179 51.0802 74.0968 50.9775L72.8668 50.82L72.1056 49.8638C70.5231 47.91 69.6456 46.3875 68.3931 43.4363C67.2981 40.935 66.3418 39.4725 64.8193 38.025C64.1931 37.44 63.7468 36.9525 63.7843 36.9525C63.8631 36.9525 64.6056 37.3238 65.4643 37.7738C66.8893 38.535 67.0656 38.595 67.7106 38.4975C70.0356 38.2238 72.0868 35.55 72.8293 31.8C73.0431 30.7463 73.4743 29.67 73.9243 29.025C73.9431 29.0063 74.8431 29.5913 75.8968 30.3525C78.5743 32.2463 79.1593 32.5388 80.6818 32.5988C81.6793 32.6363 82.2456 32.5613 84.0418 32.13C87.8706 31.1925 92.0106 30.8213 94.5306 31.155C95.9556 31.35 98.0068 31.9763 99.5293 32.6963C101.033 33.4013 101.326 33.4388 101.813 33.0075C102.222 32.655 102.222 32.5988 102.222 31.29C102.203 29.355 101.498 27.2663 100.426 26.0175C99.8781 25.3725 98.3368 24.3188 96.8106 23.5163C96.268 23.2285 95.728 22.936 95.1906 22.6388C94.4668 22.2075 93.6493 22.2675 91.4218 22.8525C88.8418 23.5163 88.1593 23.5163 85.2118 22.755C82.7106 22.1288 82.5568 22.11 80.0931 22.5C78.7843 22.695 75.5031 22.5788 74.4081 22.2863C73.8606 22.1288 73.3131 21.975 72.7881 21.78C71.8318 21.4088 70.1706 21.3488 68.6668 21.6225C65.6781 22.1513 63.4131 23.7713 62.5918 25.9763C62.1606 27.09 62.2206 27.6188 62.7868 27.9675C63.6868 28.5338 64.8756 30.0788 64.8756 30.6825C64.8756 30.72 64.5831 30.4688 64.2493 30.1163C63.4093 29.2388 62.6481 28.845 61.7481 28.845C61.1658 28.8612 60.5996 29.0397 60.1132 29.3603C59.6269 29.681 59.2398 30.1311 58.9956 30.66C58.7328 31.35 58.5112 32.055 58.3318 32.7713C57.7843 34.7625 57.2968 35.82 56.2618 37.2263C55.3431 38.4975 55.2081 39.0638 55.5381 40.4888C56.3593 44.0813 57.7843 45.5288 63.7393 48.9075C66.8631 50.685 68.4643 51.6825 69.6381 52.56C70.5381 53.2238 70.5568 53.265 70.4781 53.7713C70.3018 54.945 71.0443 56.2125 72.5106 57.2475C72.8818 57.5025 73.1143 57.7763 73.1143 57.9713C73.1143 58.3238 74.1118 58.8113 74.8318 58.8113C75.2406 58.8113 75.5556 58.635 76.3956 57.99H76.4031ZM100.486 51.405C102.751 51.4838 102.867 51.3075 101.659 49.9013C100.388 48.435 100.039 47.2463 100.508 45.9375L100.703 45.4313L99.9006 45.0413C99.6268 44.9063 99.3531 44.7675 99.0793 44.67C98.9443 45.1988 98.8056 45.705 98.6893 46.2338C98.3968 47.4263 98.0443 50.5125 98.0256 51.8213C98.0256 51.9375 98.2206 51.9 98.5543 51.6863C99.0231 51.4125 99.2593 51.375 100.489 51.4125L100.486 51.405ZM92.8881 51.2888C94.2568 51.21 95.6631 51.1125 96.0343 51.0525L96.7168 50.955L96.7956 48.7088C96.9118 45.5063 97.3806 43.6125 98.7681 40.5825C99.7431 38.4338 100.174 36.5588 99.9606 35.1525C99.8818 34.5488 99.8443 34.5075 99.0231 34.155C97.5193 33.5579 95.9533 33.1315 94.3543 32.8838C92.8131 32.67 88.2793 32.7863 86.5806 33.12C85.8756 33.2363 84.5893 33.51 83.7306 33.7238C81.6006 34.2113 80.4681 34.155 78.8481 33.45C77.2468 32.745 76.2306 32.1038 75.2743 31.2038C74.5131 30.4988 74.4343 30.4613 74.2393 30.6975C74.0818 30.8738 74.0031 31.4025 73.9468 32.535C73.8868 34.275 73.6131 35.19 72.8518 36.42C72.6827 36.6731 72.5383 36.9418 72.4206 37.2225C72.4206 37.2825 73.0056 37.965 73.7293 38.7075C76.2306 41.3063 77.4606 41.97 79.4331 41.8313C80.0781 41.7713 80.5281 41.7938 80.5281 41.8688C80.5281 42.0263 79.2568 43.02 78.7318 43.2938C78.4768 43.4288 78.4206 43.5675 78.4581 43.86L78.7693 45.9113C78.9456 47.085 79.0806 47.6288 79.2568 47.7863C79.7256 48.1763 82.1481 49.4288 83.6706 50.0513C85.6618 50.8538 86.7568 51.1463 88.2793 51.2813C90.1543 51.4388 90.1918 51.4388 92.8881 51.2813V51.2888ZM76.7368 49.14C76.7743 49.08 76.6393 47.9475 76.3843 46.6388C76.0731 44.8613 75.8968 44.2163 75.7018 44.04C75.5668 43.9238 74.8431 43.4138 74.1193 42.8888C73.1684 42.205 72.2674 41.4543 71.4231 40.6425L70.0768 39.315L69.3531 39.6863L68.5918 40.095C68.6559 40.4001 68.7606 40.6952 68.9031 40.9725C69.1168 41.4413 69.5481 42.5925 69.8593 43.53C70.6806 45.9713 71.3256 47.145 72.9456 49.2713L73.5493 50.0738L74.7006 50.25C75.3456 50.3475 75.9906 50.4863 76.1668 50.5425C76.4406 50.6588 76.4781 50.6025 76.5568 49.9763C76.5943 49.7025 76.6543 49.41 76.7331 49.1363L76.7368 49.14ZM101.483 24.8438C102.481 24.7463 102.657 24.6075 102.226 24.1613C101.952 23.8875 101.326 23.8688 100.819 24.1013C100.486 24.2588 100.411 24.2175 99.8818 23.6513C99.3343 23.0475 99.2968 23.025 98.6106 23.1038C97.9843 23.1825 97.8868 23.1638 97.8081 22.9088C97.5642 22.4899 97.2611 22.1084 96.9081 21.7763C96.4645 21.2722 95.91 20.8781 95.2881 20.625C94.0768 20.1563 93.3943 20.2163 92.2393 20.8613C88.8981 22.6763 89.0368 22.6575 85.8118 21.8363C82.8043 21.075 80.5581 20.295 79.8343 19.8038C79.2306 19.395 77.9406 18.945 76.8643 18.8063C76.0618 18.69 75.5556 18.8663 74.7943 19.4888L74.3856 19.8225L74.7568 20.4675C75.2631 21.3675 75.2068 21.4238 74.4456 20.76C73.6243 20.0775 72.6493 19.6088 72.0231 19.5863C71.5731 19.5863 70.2456 20.1713 70.0881 20.4263C70.0281 20.505 70.4406 20.6025 70.9881 20.64C71.5543 20.7 72.3343 20.895 72.8631 21.1088C74.2318 21.6938 74.9331 21.8888 76.1818 22.0088C77.5506 22.1438 80.0293 21.99 80.3218 21.7538C80.4793 21.6188 80.9068 21.5963 81.8068 21.675C82.9993 21.7538 83.4868 21.87 86.3181 22.6313C87.9606 23.0813 89.1118 23.04 91.0656 22.515C91.9656 22.26 93.0981 22.0088 93.5668 21.9488C94.3693 21.87 94.5231 21.9113 95.7756 22.4775C97.7668 23.3775 98.8243 23.9438 99.4093 24.4688C99.9943 24.975 100.073 24.975 101.479 24.8588L101.483 24.8438ZM90.3493 21.4275L91.5418 20.8013L91.5043 19.59C91.4856 18.75 91.4443 17.9288 91.4068 17.1113L91.3093 15.8625L90.1168 16.7813C89.4118 17.3288 88.7293 17.7375 88.4368 17.7975C87.5781 17.955 83.3406 17.7975 82.9468 17.5838C82.4223 17.1963 81.9317 16.7647 81.4806 16.2938L80.3856 15.18L80.3668 15.8438C80.3668 16.1963 80.3293 16.8 80.2506 17.1713C80.1531 17.8763 80.1531 17.895 80.9143 18.8513C81.3231 19.38 81.6568 19.8488 81.6568 19.905C81.6568 20.2763 87.3006 22.035 88.5718 22.0538C88.9806 22.0538 89.4906 21.8775 90.3493 21.4275ZM88.0843 16.9913C89.4906 16.7175 90.1731 15.7013 90.7018 13.125C91.2493 10.35 91.5231 5.99625 91.2681 4.14C91.0318 2.46 89.1568 1.7175 85.5831 1.83375C83.3556 1.9125 82.4368 2.12625 81.6756 2.77125C81.2068 3.16125 81.2068 3.2025 80.9931 5.055C80.6031 8.61 81.1881 13.6688 82.2043 15.5625C82.6918 16.4813 83.1231 16.8113 84.0193 16.9688C85.0356 17.145 87.2031 17.145 88.0806 16.9875L88.0843 16.9913Z" fill="black"/>
  </g>

  <g id="githubSvg">
    <path fill-rule="evenodd" clip-rule="evenodd" d="M44 0C19.69 0 0 19.69 0 44C0 63.47 12.595 79.915 30.085 85.745C32.285 86.13 33.11 84.81 33.11 83.655C33.11 82.61 33.055 79.145 33.055 75.46C22 77.495 19.14 72.765 18.26 70.29C17.765 69.025 15.62 65.12 13.75 64.075C12.21 63.25 10.01 61.215 13.695 61.16C17.16 61.105 19.635 64.35 20.46 65.67C24.42 72.325 30.745 70.455 33.275 69.3C33.66 66.44 34.815 64.515 36.08 63.415C26.29 62.315 16.06 58.52 16.06 41.69C16.06 36.905 17.765 32.945 20.57 29.865C20.13 28.765 18.59 24.255 21.01 18.205C21.01 18.205 24.695 17.05 33.11 22.715C36.63 21.725 40.37 21.23 44.11 21.23C47.85 21.23 51.59 21.725 55.11 22.715C63.525 16.995 67.21 18.205 67.21 18.205C69.63 24.255 68.09 28.765 67.65 29.865C70.455 32.945 72.16 36.85 72.16 41.69C72.16 58.575 61.875 62.315 52.085 63.415C53.68 64.79 55.055 67.43 55.055 71.555C55.055 77.44 55 82.17 55 83.655C55 84.81 55.825 86.185 58.025 85.745C66.7597 82.796 74.3497 77.1822 79.7268 69.6937C85.1039 62.2052 87.9974 53.219 88 44C88 19.69 68.31 0 44 0Z" fill="black"/>
  </g>

  <g id="sassSvg">
    <path d="M100.473 50.0766C96.4031 50.0975 92.8654 51.0694 89.9035 52.5063C88.8163 50.3721 87.7295 48.4708 87.538 47.076C87.3246 45.4493 87.0691 44.4561 87.3246 42.5122C87.5805 40.5683 88.7313 37.8001 88.7098 37.589C88.6888 37.3778 88.4539 36.3846 86.1099 36.3637C83.7659 36.3424 81.7413 36.8073 81.5069 37.42C81.2724 38.0326 80.825 39.4273 80.5266 40.8637C80.1217 42.9771 75.8386 50.5198 73.3881 54.471C72.5993 52.9291 71.9175 51.5765 71.768 50.499C71.5551 48.8722 71.2991 47.879 71.5551 45.9351C71.811 43.9912 72.9617 41.2235 72.9403 41.0119C72.9188 40.8007 72.6843 39.8075 70.3403 39.7866C67.9959 39.7653 65.9713 40.2302 65.7373 40.8429C65.5029 41.4559 65.247 42.8923 64.7571 44.2871C64.2667 45.6818 58.5769 58.275 57.0853 61.5285C56.4824 62.8453 55.8501 64.1487 55.1887 65.4376C55.1887 65.4376 55.1672 65.501 55.1032 65.6066C54.8954 66.0107 54.6824 66.4122 54.4643 66.811V66.8318C54.1444 67.4028 53.8035 67.9307 53.633 67.9307C53.5051 67.9307 53.2706 66.4095 53.6755 64.3387C54.5278 59.9652 56.5524 53.1615 56.5314 52.9291C56.5314 52.8022 56.9148 51.6191 55.2102 51.006C53.5476 50.3934 52.9512 51.4075 52.8017 51.4075C52.6527 51.4075 52.5458 51.7668 52.5458 51.7668C52.5458 51.7668 54.4003 44.118 49.0085 44.118C45.6418 44.118 40.9958 47.7734 38.6943 51.0694C36.078 52.4811 33.4639 53.8968 30.8521 55.3166C29.5953 56.0139 28.2951 56.7113 27.0804 57.3661C26.9949 57.2818 26.9099 57.1758 26.8244 57.0915C20.3034 50.1822 8.24203 45.3012 8.75342 36.0257C8.94537 32.6449 10.1171 23.7705 31.9178 12.9947C49.8609 4.22583 64.1392 6.65549 66.6111 12.0436C70.1484 19.7349 58.9608 34.0183 40.4204 36.0887C33.3455 36.8708 29.6373 34.1661 28.7 33.152C27.7197 32.0953 27.5703 32.0318 27.2079 32.2435C26.6115 32.5606 26.9949 33.5113 27.2079 34.0605C27.7622 35.4969 30.0422 38.0326 33.8994 39.2796C37.3091 40.378 45.5988 40.991 55.6361 37.1454C66.8666 32.8348 75.6467 20.8546 73.0682 10.8183C70.4893 0.633908 53.4411 -2.72556 37.3091 2.95799C27.7197 6.33921 17.32 11.6634 9.84019 18.594C0.953662 26.834 -0.45301 33.997 0.122364 36.9976C2.18987 47.6465 17.0006 54.5771 22.9248 59.7114C22.6264 59.8804 22.349 60.0286 22.115 60.1555C19.1526 61.6132 7.85814 67.4658 5.04526 73.6568C1.84894 80.6716 5.55711 85.7009 8.00759 86.3765C15.6154 88.4686 23.4362 84.7076 27.6343 78.4953C31.8323 72.2834 31.321 64.2119 29.3819 60.5144C29.3604 60.4722 29.3394 60.4296 29.2964 60.3875C30.0637 59.9439 30.8521 59.479 31.6194 59.0354C33.0297 58.2088 34.4578 57.4126 35.9029 56.6474C35.1781 58.6126 34.6452 60.958 34.3898 64.3387C34.0699 68.3113 35.7105 73.4665 37.863 75.4947C38.8223 76.3828 39.9516 76.4037 40.6764 76.4037C43.1908 76.4037 44.3206 74.3329 45.5778 71.8819C47.112 68.8818 48.4972 65.3954 48.4972 65.3954C48.4972 65.3954 46.771 74.8191 51.4595 74.8191C53.1641 74.8191 54.8902 72.6214 55.6576 71.5017V71.5226C55.6576 71.5226 55.7001 71.4592 55.7855 71.3114C55.956 71.0368 56.0625 70.8674 56.0625 70.8674V70.8257C56.7443 69.6421 58.279 66.9587 60.559 62.5004C63.4998 56.7534 66.3342 49.5696 66.3342 49.5696C66.3342 49.5696 66.5901 51.3232 67.4635 54.239C67.9753 55.9505 69.0401 57.831 69.8929 59.648C69.2111 60.5991 68.7847 61.127 68.7847 61.127L68.8061 61.1483C68.2518 61.8665 67.6554 62.6481 66.9946 63.4094C64.6716 66.1558 61.9017 69.3045 61.5178 70.2126C61.0699 71.2901 61.1769 72.0722 62.0296 72.7062C62.6475 73.1711 63.7553 73.234 64.885 73.1711C66.9735 73.0229 68.4437 72.5158 69.1681 72.1991C70.2978 71.7976 71.619 71.1846 72.8548 70.276C75.1353 68.6067 76.52 66.2192 76.3925 63.0714C76.3285 61.3386 75.7531 59.6059 75.0498 57.9787C75.2632 57.6833 75.4547 57.3874 75.6681 57.0915C79.2694 51.8724 82.0612 46.1462 82.0612 46.1462C82.0612 46.1462 82.3172 47.8998 83.1905 50.8161C83.6169 52.2951 84.4907 53.901 85.2575 55.4643C81.8693 58.1903 79.7808 61.3594 79.0349 63.4302C77.6927 67.2759 78.7365 69.0082 80.7185 69.4097C81.6134 69.6 82.8921 69.1772 83.8298 68.7757C85.0231 68.3956 86.4298 67.7408 87.7725 66.7684C90.0529 65.0995 92.2475 62.775 92.1195 59.6272C92.0555 58.1903 91.6721 56.7743 91.1392 55.4009C94.0161 54.2182 97.7243 53.563 102.455 54.1122C112.599 55.2953 114.602 61.5706 114.218 64.2123C113.835 66.8531 111.704 68.29 111.001 68.7336C110.297 69.1777 110.063 69.3254 110.127 69.6421C110.212 70.107 110.553 70.0862 111.15 70.0014C111.981 69.8537 116.478 67.8672 116.669 63.0075C116.989 56.7956 111.022 50.0132 100.473 50.0766ZM22.2215 76.2346C18.8542 79.8687 14.1662 81.2421 12.1417 80.0803C9.96815 78.8333 10.8205 73.4665 14.9546 69.6213C17.469 67.2759 20.7083 65.0991 22.8608 63.7683C23.3507 63.4724 24.0755 63.0501 24.9493 62.5217C25.0983 62.437 25.1838 62.3948 25.1838 62.3948L25.6952 62.0776C27.2079 67.5713 25.7592 72.4103 22.2215 76.2346ZM46.7285 59.7114C45.5563 62.543 43.1058 69.7903 41.6142 69.3888C40.3354 69.0508 39.5466 63.5571 41.3582 58.1269C42.2745 55.4009 44.2136 52.147 45.3433 50.8796C47.1759 48.8509 49.2005 48.1744 49.6904 48.9991C50.3087 50.0766 47.4529 57.9365 46.7285 59.7114ZM66.9521 69.3041C66.4617 69.5578 65.9933 69.7269 65.7798 69.6C65.6309 69.5153 65.9933 69.1772 65.9933 69.1772C65.9933 69.1772 68.5292 66.473 69.5305 65.2473C70.1063 64.5291 70.7877 63.684 71.5126 62.7329V63.0075C71.5126 66.2405 68.3583 68.4169 66.9516 69.3041H66.9521ZM82.5511 65.7756C82.1887 65.5219 82.2527 64.6768 83.4674 62.0355C83.9363 61.0001 85.0441 59.2678 86.9412 57.5985C87.1541 58.2746 87.3036 58.9298 87.2821 59.5424C87.2606 63.6205 84.3202 65.1417 82.5511 65.7756Z" fill="#CD6799"/>
  </g>

  <g id="gitSvg">
    <path d="M103.62 47.8219L57.7758 1.98038C55.1372 -0.6598 50.8552 -0.6598 48.2134 1.98038L38.6937 11.5001L50.7699 23.5763C53.5762 22.6281 56.7943 23.2642 59.0313 25.5012C61.2789 27.7525 61.9106 30.9981 60.9393 33.8134L72.5775 45.452C75.3932 44.482 78.6421 45.1095 80.891 47.3621C84.034 50.5039 84.034 55.596 80.891 58.7399C77.7471 61.8841 72.655 61.8841 69.5095 58.7399C67.1454 56.3733 66.5613 52.9013 67.7582 49.9888L56.9046 39.1352L56.9034 67.6973C57.6902 68.0863 58.4088 68.6002 59.0313 69.2189C62.1743 72.3607 62.1743 77.4532 59.0313 80.5995C55.8874 83.7422 50.7929 83.7422 47.6535 80.5995C44.5105 77.4532 44.5105 72.3611 47.6535 69.2193C48.4067 68.4658 49.3019 67.869 50.2872 67.4635V38.6352C49.3004 38.2324 48.4048 37.6353 47.6535 36.8793C45.2722 34.5013 44.6996 31.0071 45.9198 28.0831L34.0154 16.1775L2.58106 47.6099C-0.0603455 50.2525 -0.0603455 54.5349 2.58106 57.1755L48.4259 103.018C51.0652 105.658 55.3464 105.658 57.9891 103.018L103.619 57.3884C106.26 54.747 106.26 50.4621 103.619 47.8219" fill="#DE4C36"/>
  </g>

  <g id="bootstrapSvg">
    <path d="M0.399963 75.7821C0.399963 81.9781 5.48024 87 11.7468 87H77.0528C83.3204 87 88.4 81.9774 88.4 75.7821V11.2182C88.4 5.02187 83.3197 0 77.0531 0H11.7472C5.47956 0 0.399963 5.02255 0.399963 11.2179V75.7818V75.7821Z" fill="#563D7C"/>
    <path d="M36.8918 38.4832V26.1629H47.8612C48.9062 26.1629 49.9134 26.2489 50.8834 26.4212C51.8535 26.5931 52.7118 26.9003 53.4581 27.3431C54.2041 27.786 54.8012 28.4007 55.2491 29.1875C55.6966 29.9746 55.9208 30.9829 55.9208 32.2121C55.9208 34.4255 55.2491 36.0241 53.9057 37.0076C52.5627 37.9915 50.8463 38.4832 48.7567 38.4832H36.8918ZM25.1758 17.1621V69.8379H50.9955C53.3835 69.8379 55.7093 69.5429 57.9729 68.9526C60.2365 68.3623 62.2513 67.4525 64.0174 66.223C65.7833 64.9934 67.1889 63.407 68.2335 61.4645C69.2785 59.5216 69.8007 57.2222 69.8007 54.5663C69.8007 51.2709 68.9922 48.4553 67.3755 46.1192C65.7585 43.7828 63.3083 42.1474 60.0248 41.2129C62.4128 40.0819 64.2165 38.6307 65.4354 36.8601C66.654 35.0895 67.2635 32.8765 67.2635 30.2203C67.2635 27.7612 66.853 25.6956 66.0322 24.0232C65.2113 22.3512 64.0546 21.0108 62.562 20.0025C61.0698 18.9942 59.2788 18.2686 57.1892 17.8262C55.0999 17.3833 52.7864 17.1621 50.2492 17.1621H25.1758ZM36.8918 60.8371V46.3771H49.6521C52.1893 46.3771 54.2292 46.9548 55.7716 48.111C57.3136 49.2668 58.085 51.1971 58.085 53.9023C58.085 55.2797 57.8485 56.4107 57.3758 57.296C56.9032 58.1813 56.269 58.8823 55.4728 59.3986C54.6771 59.9151 53.7565 60.2839 52.7118 60.5054C51.6668 60.7263 50.5727 60.8371 49.4283 60.8371H36.8918Z" fill="white"/>
  </g>

  <g id="tailwindSvg">
    <path d="M28.8438 23.0844C32.6646 7.80103 42.2167 0.159363 57.5 0.159363C80.425 0.159363 83.2906 17.3531 94.7531 20.2187C102.395 22.1292 109.081 19.2635 114.812 11.6219C110.992 26.9052 101.44 34.5469 86.1562 34.5469C63.2313 34.5469 60.3656 17.3531 48.9031 14.4875C41.2615 12.5771 34.575 15.4427 28.8438 23.0844ZM0.1875 57.4719C4.00833 42.1885 13.5604 34.5469 28.8438 34.5469C51.7687 34.5469 54.6344 51.7406 66.0969 54.6062C73.7385 56.5167 80.425 53.651 86.1562 46.0094C82.3354 61.2927 72.7833 68.9344 57.5 68.9344C34.575 68.9344 31.7094 51.7406 20.2469 48.875C12.6052 46.9646 5.91875 49.8302 0.1875 57.4719Z" fill="#44A8B3"/>
  </g>

  <g id="mongodbSvg">
    <path d="M84.7409 47.7544C78.7206 19.869 66.1565 12.4436 62.9684 7.19463C61.2356 4.33931 59.4687 0 59.4687 0C59.296 2.47333 58.9897 4.03976 56.9795 5.91949C52.9537 9.68719 35.8456 24.3238 34.4086 56.0098C33.0684 85.5523 55.087 103.772 58.0134 105.655C60.2488 106.809 62.9867 105.677 64.2955 104.619C74.9069 96.9681 89.4237 76.5686 84.7279 47.7544" fill="#10AA50"/>
    <path d="M60.3807 89.9189C59.8284 97.2345 59.4305 101.491 58.0249 105.663C58.0249 105.663 58.9515 112.624 59.5954 120H61.891C62.439 114.805 63.2754 109.648 64.396 104.556C61.4224 103.025 60.4932 96.3358 60.3807 89.9189Z" fill="#B8C4C2"/>
    <path d="M64.3943 104.561C61.3894 103.104 60.5204 96.2809 60.3869 89.9189C61.1272 79.43 61.3413 68.9075 61.0282 58.395C60.8711 52.8795 61.1067 7.30163 59.7351 0.62915C60.29 1.93452 61.6302 5.00144 62.9704 7.19171C66.1716 12.4434 78.7252 19.8689 84.7403 47.757C89.4283 76.497 74.9979 96.8607 64.3943 104.561Z" fill="#12924F"/>
  </g>

  <g id="expressSvg">
    <path d="M37.2184 73.389V47.1348H38.6425V51.2646C38.8106 51.0815 38.9659 50.887 39.1073 50.6824C40.2967 48.2148 42.8053 46.6574 45.5441 46.6882C48.791 46.5914 51.4295 47.7933 52.98 50.6824C53.9667 52.4773 54.5097 54.4822 54.5636 56.5297C54.6175 58.5771 54.1808 60.6078 53.2899 62.4521C51.8453 65.6899 48.2772 67.2996 44.4572 66.7084C43.2684 66.6073 42.1239 66.2101 41.1281 65.553C40.1322 64.8959 39.3169 63.9998 38.7564 62.9465V73.3878L37.2184 73.389ZM38.6425 56.422L38.9615 59.5048C39.5243 63.0138 41.5988 65.0872 44.856 65.4768C46.3856 65.7283 47.955 65.4416 49.2968 64.6654C50.6386 63.8893 51.6698 62.6718 52.2144 61.2206C53.4813 58.2015 53.3879 54.7838 51.9638 51.8354C51.3825 50.5344 50.3935 49.4581 49.1464 48.7689C47.8992 48.0797 46.4616 47.8153 45.0508 48.0154C43.7266 48.1118 42.4652 48.6181 41.4419 49.4642C40.4187 50.3102 39.6843 51.454 39.3408 52.7365C39.0376 53.9502 38.8044 55.1804 38.6425 56.4209V56.422ZM83.6409 59.9902C83.4249 61.8387 82.5449 63.5459 81.1646 64.7942C79.7842 66.0425 77.9974 66.7471 76.1366 66.7767C70.1646 67.0775 67.362 63.1117 66.9166 58.5353C66.6068 56.0501 67.0102 53.5281 68.0797 51.2635C68.8241 49.71 70.0438 48.4338 71.5619 47.6198C73.0801 46.8058 74.8181 46.4963 76.5239 46.736C78.1456 46.8739 79.6829 47.5183 80.9182 48.5779C82.1535 49.6376 83.0243 51.059 83.4073 52.6408C83.7107 54.0818 83.934 55.5385 84.0761 57.0042H68.3919C68.1014 61.1534 70.3309 64.4891 73.4912 65.2934C77.4273 66.2618 80.7916 64.5563 82.0129 60.8139C82.284 59.8535 82.7785 59.7179 83.6511 59.9902H83.6409ZM68.3805 55.6758H82.4093C82.3216 51.2555 79.5692 48.0428 75.8358 48.0063C71.6206 47.938 68.5639 51.0219 68.3805 55.6758ZM86.5403 60.087H87.9154C87.9659 61.1001 88.2949 62.0796 88.8661 62.9177C89.4373 63.7559 90.2287 64.4203 91.1531 64.8377C92.3139 65.3601 93.5775 65.614 94.8499 65.5804C96.1224 65.5469 97.3708 65.2268 98.5025 64.644C99.1193 64.3663 99.6361 63.9059 99.9828 63.325C100.33 62.7441 100.49 62.0708 100.441 61.396C100.477 60.7452 100.299 60.1006 99.9354 59.5599C99.5715 59.0192 99.0413 58.6119 98.425 58.3998C96.9121 57.837 95.3034 57.5271 93.762 57.0327C92.1581 56.576 90.5897 56.0026 89.0694 55.3169C86.5858 54.1048 86.432 49.3837 89.2437 47.889C90.6834 47.0766 92.3036 46.6376 93.9565 46.6122C95.6094 46.5867 97.2424 46.9755 98.7064 47.7432C100.522 48.7457 101.526 50.7702 101.228 52.8242H100.048C100.048 52.7673 99.9414 52.7171 99.9414 52.659C99.7955 48.8995 96.6352 47.7238 93.2425 48.0542C92.2172 48.1681 91.2454 48.478 90.334 48.936C89.7861 49.1862 89.3296 49.6005 89.0275 50.1215C88.7254 50.6426 88.5928 51.2447 88.6479 51.8445C88.649 52.4447 88.8361 53.0298 89.1833 53.5194C89.5305 54.0091 90.0209 54.3791 90.5869 54.5787C92.0679 55.1221 93.6401 55.4707 95.1724 55.8968L98.875 56.8652C99.7166 57.1414 100.454 57.6666 100.991 58.3712C101.528 59.0759 101.838 59.9269 101.88 60.8116C102.177 62.7996 101.163 64.7534 99.3695 65.6591C96.1317 67.491 90.7988 67.0069 88.4235 64.6907C87.2079 63.4683 86.53 61.8084 86.5437 60.0859L86.5403 60.087ZM119.328 52.8254H118.038C118.038 52.6511 117.97 52.4836 117.951 52.3503C117.93 51.3836 117.578 50.4534 116.953 49.7156C116.328 48.9778 115.468 48.4773 114.518 48.298C112.726 47.7839 110.814 47.876 109.079 48.56C108.393 48.7563 107.79 49.1693 107.358 49.7373C106.926 50.3053 106.69 50.9978 106.685 51.7112C106.66 52.4117 106.878 53.0991 107.302 53.6573C107.726 54.2155 108.33 54.6102 109.011 54.7746L114.906 56.2876C115.543 56.4405 116.171 56.6314 116.785 56.8595C118.665 57.543 119.941 59.2884 119.998 61.2832C120.026 62.2597 119.758 63.2218 119.23 64.0432C118.701 64.8647 117.936 65.507 117.036 65.8858C115.668 66.5073 114.185 66.8361 112.682 66.8512C111.18 66.8663 109.691 66.5674 108.31 65.9735C107.175 65.4841 106.217 64.6586 105.565 63.6081C104.914 62.5577 104.599 61.3329 104.665 60.0984H105.925C106.399 62.3826 107.967 64.2852 110.119 65.1852C112.272 66.0852 114.729 65.8642 116.686 64.5973C117.273 64.2919 117.761 63.8247 118.091 63.2509C118.421 62.677 118.579 62.0207 118.548 61.3596C118.577 60.7083 118.393 60.0653 118.024 59.5281C117.654 58.9909 117.12 58.5887 116.502 58.3827C114.989 57.8199 113.38 57.5203 111.839 57.0156C110.226 56.5659 108.648 55.999 107.118 55.3192C104.693 54.1264 104.5 49.4441 107.263 47.9505C108.721 47.104 110.373 46.6493 112.058 46.6305C113.743 46.6117 115.405 47.0296 116.881 47.8434C117.725 48.3472 118.405 49.0857 118.837 49.9688C119.269 50.8519 119.435 51.8416 119.314 52.8174L119.328 52.8254ZM34.875 66.3028C34.3673 66.4948 33.807 66.4942 33.2997 66.3014C32.7924 66.1085 32.3732 65.7366 32.1214 65.2558L27.1086 58.3234L26.3818 57.3551L20.5647 65.2661C20.3276 65.7261 19.9312 66.0842 19.4494 66.2733C18.9676 66.4624 18.4335 66.4696 17.9467 66.2937L25.4408 56.2397L18.4685 47.1553C19.5029 46.7816 20.6559 47.1872 21.2312 48.1237L26.4262 55.1415L31.652 48.151C31.8908 47.6988 32.2876 47.3502 32.7667 47.1714C33.2458 46.9927 33.774 46.9963 34.2506 47.1815L31.5449 50.7713L27.8799 55.5414C27.7782 55.6322 27.6968 55.7435 27.6411 55.868C27.5854 55.9924 27.5565 56.1273 27.5565 56.2637C27.5565 56.4 27.5854 56.5349 27.6411 56.6593C27.6968 56.7838 27.7782 56.8951 27.8799 56.9859L34.8601 66.3028H34.875ZM66.6944 47.0585V48.4256C65.7138 48.3612 64.7306 48.5033 63.8083 48.8424C62.886 49.1816 62.0451 49.7104 61.3398 50.3946C60.6345 51.0789 60.0805 51.9034 59.7135 52.8151C59.3466 53.7267 59.1749 54.7051 59.2095 55.6872C59.2095 58.8802 59.2095 62.0731 59.2095 65.2661V66.3518H57.823V47.1439H59.1901V51.08C60.8671 48.2091 63.4555 47.1439 66.7035 47.0664L66.6944 47.0585ZM0.00227889 56.1144L0.612921 53.0988C2.28991 47.1359 9.12545 44.6546 13.8283 48.3481C16.5819 50.5104 17.2689 53.5739 17.1344 57.0258H1.62116C1.37053 63.1915 5.81933 66.9146 11.5099 65.0143C13.3851 64.3307 14.7967 62.7722 15.2615 60.8355C15.5623 59.8671 16.059 59.7008 16.9681 59.9811C16.8165 61.1615 16.3992 62.2921 15.7476 63.2881C15.096 64.284 14.2271 65.1192 13.2063 65.7309C11.5197 66.6533 9.58459 67.0187 7.67775 66.775C5.77091 66.5313 3.98995 65.6909 2.58953 64.374C1.2042 62.8167 0.367981 60.848 0.205067 58.7689C0.205067 58.4271 0.0911409 58.1081 0.0113928 57.8005C0.00379779 57.2256 0 56.6635 0 56.1144H0.00227889ZM1.64053 55.6974H15.6693C15.5816 51.2281 12.7608 48.0576 8.99899 48.028C4.81108 47.971 1.81484 51.0721 1.63028 55.6781L1.64053 55.6974Z" fill="#BDEBEA"/>
  </g>

  <g id="dockerSvg">
    <path d="M117.523 33.7463C114.821 31.8713 108.628 31.1681 103.787 32.1056C103.224 27.4181 100.635 23.3171 96.1308 19.6842L93.5414 17.8092L91.7395 20.5046C89.4881 24.0202 88.3622 28.9421 88.6997 33.6296C88.8122 35.2697 89.3752 38.1994 91.0641 40.7775C89.4881 41.715 86.2228 42.8869 81.9445 42.8869H0.541401L0.316401 43.8244C-0.472037 48.5114 -0.472037 63.1594 8.76046 74.4089C15.7411 82.9632 26.0995 87.2991 39.7228 87.2991C69.2212 87.2991 91.0641 73.1194 101.31 47.4567C105.363 47.5739 114.033 47.4567 118.424 38.6677C118.537 38.4333 118.762 37.9646 119.55 36.2072L120 35.2697L117.523 33.7463ZM65.6184 0.700806H53.2341V12.4191H65.6184V0.700806ZM65.6184 14.7628H53.2341V26.4811H65.6184V14.7624V14.7628ZM50.9817 14.7628H38.5973V26.4811H50.9817V14.7624V14.7628ZM36.345 14.7628H23.9602V26.4811H36.345V14.7624V14.7628ZM21.7083 28.8249H9.32343V40.5432H21.7078V28.8244L21.7083 28.8249ZM36.345 28.8249H23.9602V40.5432H36.345V28.8244V28.8249ZM50.9817 28.8249H38.5973V40.5432H50.9817V28.8244V28.8249ZM65.6189 28.8249H53.2336V40.5432H65.6189V28.8244V28.8249ZM80.2556 28.8249H67.8703V40.5432H80.2556V28.8244V28.8249Z" fill="#2396ED"/>
  </g>


  <!-- Social icon -->

  <g id="instagramSvg">
    <path d="M15.6516 2.09998H5.34844C3.55687 2.09998 2.1 3.55628 2.1 5.34715V8.77799V15.6528C2.1 17.4437 3.55687 18.9 5.34844 18.9H15.6516C17.4431 18.9 18.9 17.4437 18.9 15.6528V8.77143V5.34058C18.8934 3.55628 17.4366 2.09998 15.6516 2.09998ZM16.5834 4.03516H16.9575V4.40251V6.88217L14.1159 6.88873L14.1094 4.04172L16.5834 4.03516ZM8.09812 8.77143C8.63625 8.03016 9.50906 7.53816 10.4934 7.53816C11.4778 7.53816 12.3506 8.0236 12.8887 8.77143C13.2431 9.25687 13.4466 9.85382 13.4466 10.4967C13.4466 12.1236 12.1209 13.4552 10.4869 13.4552C8.85281 13.4552 7.54031 12.1236 7.54031 10.4967C7.54031 9.85382 7.75031 9.25687 8.09812 8.77143ZM17.2594 15.6462C17.2594 16.5318 16.5375 17.2534 15.6516 17.2534H5.34844C4.4625 17.2534 3.74062 16.5318 3.74062 15.6462V8.77143H6.2475C6.03094 9.30279 5.90625 9.88662 5.90625 10.4967C5.90625 13.0288 7.96687 15.0887 10.5 15.0887C13.0331 15.0887 15.0937 13.0288 15.0937 10.4967C15.0937 9.88662 14.9691 9.30279 14.7525 8.77143H17.2594V15.6462Z" fill="#25282B"/>
  </g>

  <g id="telegramSvg">
    <path d="M18.9057 4.76449L16.3705 16.7208C16.1791 17.5644 15.6804 17.7745 14.9717 17.3772L11.1085 14.5305L9.24472 16.3235C9.0383 16.5299 8.86608 16.7022 8.46824 16.7022L8.74607 12.7681L15.9054 6.29885C16.2169 6.02162 15.8376 5.86741 15.4218 6.14524L6.57084 11.7186L2.76043 10.5257C1.93174 10.2671 1.91674 9.69701 2.93325 9.29917L17.837 3.55716C18.5271 3.29854 19.1308 3.71018 18.9057 4.76449Z" fill="#25282B"/>
  </g>

  <g id="vkSvg">
    <path d="M18.1696 13.9941C17.8038 13.5391 17.3881 13.1314 16.9861 12.737C16.8432 12.5968 16.6954 12.4518 16.5529 12.3076C16.1439 11.8932 16.129 11.7375 16.4529 11.2668C16.6769 10.9424 16.9145 10.6175 17.1442 10.3033C17.3526 10.0183 17.568 9.72351 17.7746 9.42777L17.817 9.36697C18.2117 8.80103 18.6199 8.21583 18.8372 7.50988C18.8936 7.32363 18.9528 7.04955 18.8174 6.82036C18.682 6.59137 18.4195 6.52151 18.2337 6.48888C18.1418 6.47273 18.0506 6.47053 17.9659 6.47053L15.3809 6.46861L15.3595 6.46842C14.9687 6.46842 14.7053 6.65927 14.5544 7.05194C14.4103 7.42713 14.252 7.82665 14.0714 8.20653C13.7119 8.96298 13.2554 9.83425 12.5948 10.5609L12.5669 10.5918C12.4889 10.6787 12.4005 10.777 12.3359 10.777C12.326 10.777 12.3152 10.7751 12.303 10.7711C12.1662 10.7159 12.0744 10.3726 12.0785 10.213C12.0786 10.2108 12.0786 10.2086 12.0786 10.2064L12.0768 7.1105C12.0768 7.09976 12.0761 7.08913 12.0747 7.07849C12.009 6.57522 11.8633 6.26195 11.3129 6.15026C11.2983 6.14724 11.2834 6.14575 11.2685 6.14575H8.5806C8.14268 6.14575 7.90138 6.33018 7.67456 6.60623C7.61334 6.68002 7.48589 6.83364 7.54906 7.01998C7.61315 7.20911 7.8212 7.24955 7.88894 7.26268C8.22522 7.32899 8.41477 7.54213 8.46846 7.91453C8.56219 8.56121 8.57371 9.25144 8.50471 10.0868C8.48547 10.3189 8.44742 10.4982 8.38471 10.6514C8.37015 10.6872 8.31849 10.8038 8.26582 10.8039C8.24908 10.8039 8.20067 10.7971 8.11248 10.7341C7.90397 10.5861 7.75142 10.3749 7.57357 10.114C6.96853 9.22796 6.46074 8.25191 6.02097 7.12938C5.85787 6.71615 5.55327 6.48481 5.16289 6.478C4.73395 6.47125 4.34504 6.46799 3.97413 6.46799C3.56886 6.46799 3.19314 6.47187 2.82625 6.47978C2.51217 6.48553 2.29492 6.58308 2.18061 6.76996C2.06611 6.95697 2.07356 7.20264 2.20276 7.50001C3.23702 9.88254 4.17478 11.6149 5.24345 13.1171C5.99225 14.1683 6.74333 14.8959 7.60686 15.4068C8.51664 15.9461 9.5362 16.2083 10.7237 16.2083C10.8583 16.2083 10.9975 16.2048 11.1379 16.198C11.8279 16.1632 12.0839 15.9044 12.1163 15.2082C12.1317 14.8525 12.1692 14.4793 12.338 14.1611C12.4445 13.9606 12.5439 13.9606 12.5765 13.9606C12.6394 13.9606 12.7174 13.9906 12.8011 14.0468C12.9513 14.1484 13.0801 14.2845 13.1857 14.4034C13.285 14.5163 13.3833 14.6304 13.4817 14.7446C13.6939 14.9909 13.9134 15.2456 14.1427 15.4871C14.6445 16.0162 15.1973 16.2488 15.8323 16.1983H18.2023C18.2073 16.1983 18.2124 16.1981 18.2175 16.1978C18.4536 16.1817 18.6582 16.0459 18.7786 15.8254C18.9279 15.5522 18.9249 15.2037 18.7706 14.893C18.5956 14.5415 18.3685 14.2413 18.1696 13.9941Z" fill="#25282B"/>
  </g>

  <g id="linkedinSvg">
    <path d="M5.80637 7.88635H2.53296V18.3626H5.80637V7.88635Z" fill="#25282B"/>
    <path d="M4.10079 2.94019C2.89376 2.94019 2.10001 3.72082 2.10001 4.75729C2.10001 5.77408 2.86752 6.57439 4.05487 6.57439H4.08111C5.31437 6.57439 6.08189 5.76752 6.07533 4.75729C6.04909 3.72082 5.30781 2.94019 4.10079 2.94019Z" fill="#25282B"/>
    <path d="M14.7476 7.78796C12.8714 7.78796 11.6972 8.81131 11.4807 9.53291V7.88636H7.8006C7.84652 8.75883 7.8006 18.3626 7.8006 18.3626H11.4807V12.7014C11.4807 12.3799 11.4676 12.065 11.5594 11.842C11.8087 11.2123 12.3532 10.5563 13.3306 10.5563C14.6098 10.5563 15.1871 11.5271 15.1871 12.9441V18.3626H18.9V12.5374C18.9 9.29675 17.0764 7.78796 14.7476 7.78796Z" fill="#25282B"/>
  </g>
  
</svg>
